<mxfile host="app.diagrams.net" modified="2023-12-02T12:14:31.810Z" agent="Mozilla/5.0 (Windows NT 10.0; Win64; x64) AppleWebKit/537.36 (KHTML, like Gecko) Chrome/119.0.0.0 Safari/537.36" etag="jjc9gp8niUlVCR4tEYlP" version="22.1.5" type="device">
  <diagram name="Page-1" id="dzQOnumiCBZTQUY0TyCL">
    <mxGraphModel dx="2531" dy="1872" grid="1" gridSize="10" guides="1" tooltips="1" connect="1" arrows="1" fold="1" page="1" pageScale="1" pageWidth="850" pageHeight="1100" math="0" shadow="0">
      <root>
        <mxCell id="0" />
        <mxCell id="1" parent="0" />
        <mxCell id="P7VSxlDMBpMuydGatJfI-45" value="" style="whiteSpace=wrap;html=1;aspect=fixed;fillColor=#DEDEDE;" vertex="1" parent="1">
          <mxGeometry x="-2" y="-20" width="520" height="520" as="geometry" />
        </mxCell>
        <mxCell id="P7VSxlDMBpMuydGatJfI-46" value="" style="whiteSpace=wrap;html=1;aspect=fixed;fillColor=#A3A3A3;" vertex="1" parent="1">
          <mxGeometry x="720" y="1860" width="528" height="528" as="geometry" />
        </mxCell>
        <mxCell id="P7VSxlDMBpMuydGatJfI-75" style="edgeStyle=orthogonalEdgeStyle;rounded=0;orthogonalLoop=1;jettySize=auto;html=1;" edge="1" parent="1" source="P7VSxlDMBpMuydGatJfI-49" target="P7VSxlDMBpMuydGatJfI-50">
          <mxGeometry relative="1" as="geometry" />
        </mxCell>
        <mxCell id="P7VSxlDMBpMuydGatJfI-77" style="edgeStyle=orthogonalEdgeStyle;rounded=0;orthogonalLoop=1;jettySize=auto;html=1;entryX=0.5;entryY=0;entryDx=0;entryDy=0;" edge="1" parent="1" source="P7VSxlDMBpMuydGatJfI-49" target="P7VSxlDMBpMuydGatJfI-51">
          <mxGeometry relative="1" as="geometry" />
        </mxCell>
        <mxCell id="P7VSxlDMBpMuydGatJfI-49" value="MACHINE LEARNING&lt;br&gt;(Develop a Predictive model based on both Input and Output)" style="rounded=1;whiteSpace=wrap;html=1;" vertex="1" parent="1">
          <mxGeometry x="172" y="46" width="180" height="70" as="geometry" />
        </mxCell>
        <mxCell id="P7VSxlDMBpMuydGatJfI-78" value="" style="edgeStyle=orthogonalEdgeStyle;rounded=0;orthogonalLoop=1;jettySize=auto;html=1;" edge="1" parent="1" source="P7VSxlDMBpMuydGatJfI-50" target="P7VSxlDMBpMuydGatJfI-52">
          <mxGeometry relative="1" as="geometry" />
        </mxCell>
        <mxCell id="P7VSxlDMBpMuydGatJfI-50" value="CLASSIFICATION&lt;br&gt;(to identify the hotspot of highest degree of crime &#39;FELONY&#39;&amp;nbsp;" style="rounded=1;whiteSpace=wrap;html=1;" vertex="1" parent="1">
          <mxGeometry x="32" y="189" width="170" height="61" as="geometry" />
        </mxCell>
        <mxCell id="P7VSxlDMBpMuydGatJfI-80" value="" style="edgeStyle=orthogonalEdgeStyle;rounded=0;orthogonalLoop=1;jettySize=auto;html=1;" edge="1" parent="1">
          <mxGeometry relative="1" as="geometry">
            <mxPoint x="373" y="259" as="sourcePoint" />
            <mxPoint x="371" y="290" as="targetPoint" />
          </mxGeometry>
        </mxCell>
        <mxCell id="P7VSxlDMBpMuydGatJfI-51" value="PREDICTION&lt;br&gt;(to find the factor that influence crime in New York City classified on Borough&#39;s)" style="rounded=1;whiteSpace=wrap;html=1;" vertex="1" parent="1">
          <mxGeometry x="282" y="189" width="170" height="70" as="geometry" />
        </mxCell>
        <mxCell id="P7VSxlDMBpMuydGatJfI-87" value="" style="edgeStyle=orthogonalEdgeStyle;rounded=0;orthogonalLoop=1;jettySize=auto;html=1;" edge="1" parent="1" source="P7VSxlDMBpMuydGatJfI-52" target="P7VSxlDMBpMuydGatJfI-86">
          <mxGeometry relative="1" as="geometry" />
        </mxCell>
        <mxCell id="P7VSxlDMBpMuydGatJfI-88" value="RESILTS/ ANALYSIS" style="edgeLabel;html=1;align=center;verticalAlign=middle;resizable=0;points=[];" vertex="1" connectable="0" parent="P7VSxlDMBpMuydGatJfI-87">
          <mxGeometry x="0.1373" relative="1" as="geometry">
            <mxPoint as="offset" />
          </mxGeometry>
        </mxCell>
        <mxCell id="P7VSxlDMBpMuydGatJfI-52" value="KNN" style="rounded=1;whiteSpace=wrap;html=1;" vertex="1" parent="1">
          <mxGeometry x="32" y="289" width="170" height="41" as="geometry" />
        </mxCell>
        <mxCell id="P7VSxlDMBpMuydGatJfI-53" value="SIMPLE LINEAR REGRESSION&lt;br&gt;&lt;br&gt;RANDOM FOREST&lt;br&gt;&lt;br&gt;ORDINARY LEAST SQUARE" style="rounded=1;whiteSpace=wrap;html=1;" vertex="1" parent="1">
          <mxGeometry x="282" y="290" width="210" height="79" as="geometry" />
        </mxCell>
        <mxCell id="P7VSxlDMBpMuydGatJfI-57" value="" style="shape=image;verticalLabelPosition=bottom;labelBackgroundColor=#ffffff;verticalAlign=top;aspect=fixed;imageAspect=0;image=data:image/svg+xml,PHN2ZyB4bWxuczpjYz0iaHR0cDovL2NyZWF0aXZlY29tbW9ucy5vcmcvbnMjIiB4bWxuczpkYz0iaHR0cDovL3B1cmwub3JnL2RjL2VsZW1lbnRzLzEuMS8iIHhtbG5zOmlua3NjYXBlPSJodHRwOi8vd3d3Lmlua3NjYXBlLm9yZy9uYW1lc3BhY2VzL2lua3NjYXBlIiB4bWxuczpyZGY9Imh0dHA6Ly93d3cudzMub3JnLzE5OTkvMDIvMjItcmRmLXN5bnRheC1ucyMiIHhtbG5zOnNvZGlwb2RpPSJodHRwOi8vc29kaXBvZGkuc291cmNlZm9yZ2UubmV0L0RURC9zb2RpcG9kaS0wLmR0ZCIgeG1sbnM6c3ZnPSJodHRwOi8vd3d3LnczLm9yZy8yMDAwL3N2ZyIgeG1sbnM9Imh0dHA6Ly93d3cudzMub3JnLzIwMDAvc3ZnIiB4bWxuczp4bGluaz0iaHR0cDovL3d3dy53My5vcmcvMTk5OS94bGluayIgdmVyc2lvbj0iMS4xIiBpZD0ic3ZnNDY2NzAiIGlua3NjYXBlOnZlcnNpb249IjAuOTIuMyAoMjQwNTU0NiwgMjAxOC0wMy0xMSkiIHNvZGlwb2RpOmRvY25hbWU9ImRhdGFiYXNlX2FuZF90YWJsZS5zdmciIHg9IjBweCIgeT0iMHB4IiB2aWV3Qm94PSIwIDAgNDIuNzUgNDcuNjkiIHN0eWxlPSJlbmFibGUtYmFja2dyb3VuZDpuZXcgMCAwIDQyLjc1IDQ3LjY5OyIgeG1sOnNwYWNlPSJwcmVzZXJ2ZSI+JiN4YTs8c29kaXBvZGk6bmFtZWR2aWV3IGJvcmRlcmNvbG9yPSIjNjY2NjY2IiBib3JkZXJvcGFjaXR5PSIxIiBmaXQtbWFyZ2luLWJvdHRvbT0iMCIgZml0LW1hcmdpbi1sZWZ0PSIwIiBmaXQtbWFyZ2luLXJpZ2h0PSIwIiBmaXQtbWFyZ2luLXRvcD0iMCIgZ3JpZHRvbGVyYW5jZT0iMTAiIGd1aWRldG9sZXJhbmNlPSIxMCIgaWQ9Im5hbWVkdmlldzQ2NjcyIiBpbmtzY2FwZTpjdXJyZW50LWxheWVyPSJzdmc0NjY3MCIgaW5rc2NhcGU6Y3g9IjIyLjI4MTUzNCIgaW5rc2NhcGU6Y3k9IjE5Ljc5OTQwOSIgaW5rc2NhcGU6cGFnZW9wYWNpdHk9IjAiIGlua3NjYXBlOnBhZ2VzaGFkb3c9IjIiIGlua3NjYXBlOndpbmRvdy1oZWlnaHQ9IjEwMTciIGlua3NjYXBlOndpbmRvdy1tYXhpbWl6ZWQ9IjEiIGlua3NjYXBlOndpbmRvdy13aWR0aD0iMTkyMCIgaW5rc2NhcGU6d2luZG93LXg9Ii04IiBpbmtzY2FwZTp3aW5kb3cteT0iLTgiIGlua3NjYXBlOnpvb209IjYuNjA5MjQwNSIgb2JqZWN0dG9sZXJhbmNlPSIxMCIgcGFnZWNvbG9yPSIjZmZmZmZmIiBzaG93Z3JpZD0iZmFsc2UiPiYjeGE7CTwvc29kaXBvZGk6bmFtZWR2aWV3PiYjeGE7PGcgaWQ9Imc0NjY2OCIgdHJhbnNmb3JtPSJ0cmFuc2xhdGUoLTAuNzUsLTAuNzQ1KSI+JiN4YTsJPHRpdGxlIGlkPSJ0aXRsZTQ2NjE0Ij5QYWdlLTE8L3RpdGxlPiYjeGE7CTxnIGlkPSJncm91cDQ0MDEtMSIgdHJhbnNmb3JtPSJ0cmFuc2xhdGUoMS41LC0xLjUpIj4mI3hhOwkJPHRpdGxlIGlkPSJ0aXRsZTQ2NjE2Ij5EYXRhYmFzZSBhbmQgVGFibGU8L3RpdGxlPiYjeGE7CQk8ZyBpZD0ic2hhcGU0NDAyLTIiPiYjeGE7CQkJPHRpdGxlIGlkPSJ0aXRsZTQ2NjE4Ij5wYXRoNDI3MzwvdGl0bGU+JiN4YTsJCQk8cGF0aCBpZD0icGF0aDQ2NjIwIiBpbmtzY2FwZTpjb25uZWN0b3ItY3VydmF0dXJlPSIwIiBzdHlsZT0iZmlsbDojRkZGRkZGOyIgZD0iTTMxLjc5LDlMMjEuNDQsOS4wOUwwLDkuMjd2MzMuMzcgICAgIGMwLDMuNDIsNy41LDYuMzcsMTcuMjUsNi41NWgwLjM3YzEuMzIsMCwyLjYtMC4wNywzLjgyLTAuMTljMy41Ny0wLjIyLDcuMDgtMS4wNywxMC4zNS0yLjUzYzIuMTktMS4xLDMuNDYtMi40NCwzLjQ2LTMuODNWOC45NyAgICAgTDMxLjc5LDl6Ii8+JiN4YTsJCTwvZz4mI3hhOwkJPGcgaWQ9InNoYXBlNDQwMy00IiB0cmFuc2Zvcm09InRyYW5zbGF0ZSgyMS4xNSwtMC4yMSkiPiYjeGE7CQkJPHRpdGxlIGlkPSJ0aXRsZTQ2NjIzIj5wYXRoNDI3NTwvdGl0bGU+JiN4YTsJCQk8cGF0aCBpZD0icGF0aDQ2NjI1IiBpbmtzY2FwZTpjb25uZWN0b3ItY3VydmF0dXJlPSIwIiBzdHlsZT0iZmlsbDojRTVFNUU1OyIgZD0iTTEwLjM1LDkuMjF2MzcuNDUgICAgIEM3LjA4LDQ4LjEyLDMuNTcsNDguOTcsMCw0OS4xOVY5LjNMMTAuMzUsOS4yMXoiLz4mI3hhOwkJPC9nPiYjeGE7CQk8ZyBpZD0ic2hhcGU0NDA0LTYiPiYjeGE7CQkJPHRpdGxlIGlkPSJ0aXRsZTQ2NjI4Ij5wYXRoNDI3NzwvdGl0bGU+JiN4YTsJCQk8cGF0aCBpZD0icGF0aDQ2NjMwIiBpbmtzY2FwZTpjb25uZWN0b3ItY3VydmF0dXJlPSIwIiBzdHlsZT0iZmlsbDpub25lOyIgZD0iTTAsOS4yN3YzMy4zN2MwLDMuNDIsNy40Niw2LjM3LDE3LjI1LDYuNTVoMC4zNyAgICAgYzkuOTctMC4xMywxNy42My0zLjEsMTcuNjMtNi41NVY4Ljk3TDAsOS4yN3oiLz4mI3hhOwkJCSYjeGE7CQkJCTxwYXRoIGlkPSJwYXRoNDY2MzIiIGlua3NjYXBlOmNvbm5lY3Rvci1jdXJ2YXR1cmU9IjAiIHN0eWxlPSJmaWxsOm5vbmU7c3Ryb2tlOiM1NTZBOEE7c3Ryb2tlLXdpZHRoOjEuNTtzdHJva2UtbWl0ZXJsaW1pdDozOyIgZD0iICAgICBNMCw5LjI3djMzLjM3YzAsMy40Miw3LjQ2LDYuMzcsMTcuMjUsNi41NWgwLjM3YzkuOTctMC4xMywxNy42My0zLjEsMTcuNjMtNi41NVY4Ljk3Ii8+JiN4YTsJCTwvZz4mI3hhOwkJPGcgaWQ9InNoYXBlNDQwNS05IiB0cmFuc2Zvcm09InRyYW5zbGF0ZSgwLjA0NSwtMzMuNDY1KSI+JiN4YTsJCQk8dGl0bGUgaWQ9InRpdGxlNDY2MzUiPnBhdGg0Mjc5PC90aXRsZT4mI3hhOwkJCTxwYXRoIGlkPSJwYXRoNDY2MzciIGlua3NjYXBlOmNvbm5lY3Rvci1jdXJ2YXR1cmU9IjAiIHN0eWxlPSJmaWxsOiNCQUQ4MEE7IiBkPSJNMzUuMjUsNDIuODJjMCwzLjUyLTcuODksNi4zNy0xNy42Myw2LjM3ICAgICBDNy44OSw0OS4xOSwwLDQ2LjM0LDAsNDIuODJjMC0zLjUxLDguMTItNi4zNiwxNy44Ni02LjM2QzI3LjU5LDM2LjQ2LDM1LjI1LDM5LjMxLDM1LjI1LDQyLjgyTDM1LjI1LDQyLjgyeiIvPiYjeGE7CQkJJiN4YTsJCQkJPHBhdGggaWQ9InBhdGg0NjYzOSIgaW5rc2NhcGU6Y29ubmVjdG9yLWN1cnZhdHVyZT0iMCIgc3R5bGU9ImZpbGw6bm9uZTtzdHJva2U6IzU1NkE4QTtzdHJva2Utd2lkdGg6MS41O3N0cm9rZS1taXRlcmxpbWl0OjM7IiBkPSIgICAgIE0zNS4yNSw0Mi44MmMwLDMuNTItNy44OSw2LjM3LTE3LjYzLDYuMzdDNy44OSw0OS4xOSwwLDQ2LjM0LDAsNDIuODJjMC0zLjUxLDguMTItNi4zNiwxNy44Ni02LjM2ICAgICBDMjcuNTksMzYuNDYsMzUuMjUsMzkuMzEsMzUuMjUsNDIuODIiLz4mI3hhOwkJPC9nPiYjeGE7CQk8ZyBpZD0ic2hhcGU0NDA2LTEyIiB0cmFuc2Zvcm09InRyYW5zbGF0ZSgxNC4yNSwtOS41NDc1KSI+JiN4YTsJCQk8dGl0bGUgaWQ9InRpdGxlNDY2NDIiPnJlY3Q0MjgzPC90aXRsZT4mI3hhOwkJCSYjeGE7CQkJCTxyZWN0IGlkPSJyZWN0NDY2NDQiIHk9IjMxLjE5IiBzdHlsZT0iZmlsbDojRkZGRkZGO3N0cm9rZTojNTU2QThBO3N0cm9rZS13aWR0aDoxLjU7c3Ryb2tlLW1pdGVybGltaXQ6MzsiIHdpZHRoPSIyNyIgaGVpZ2h0PSIxOCIvPiYjeGE7CQk8L2c+JiN4YTsJCTxnIGlkPSJzaGFwZTQ0MDctMTQiIHRyYW5zZm9ybT0idHJhbnNsYXRlKDE0LjI1LC0yMS41NDc1KSI+JiN4YTsJCQk8dGl0bGUgaWQ9InRpdGxlNDY2NDciPmxpbmU0Mjg1PC90aXRsZT4mI3hhOwkJCSYjeGE7CQkJCTxwYXRoIGlkPSJwYXRoNDY2NDkiIGlua3NjYXBlOmNvbm5lY3Rvci1jdXJ2YXR1cmU9IjAiIHN0eWxlPSJmaWxsOm5vbmU7c3Ryb2tlOiM1NTZBOEE7c3Ryb2tlLXdpZHRoOjEuNTtzdHJva2UtbWl0ZXJsaW1pdDozOyIgZD0iICAgICBNMCw0OS4xOWgyNy43NSIvPiYjeGE7CQk8L2c+JiN4YTsJCTxnIGlkPSJzaGFwZTQ0MDgtMTciIHRyYW5zZm9ybT0idHJhbnNsYXRlKDE0LjI1LC0xNS41NDc1KSI+JiN4YTsJCQk8dGl0bGUgaWQ9InRpdGxlNDY2NTIiPmxpbmU0Mjg3PC90aXRsZT4mI3hhOwkJCSYjeGE7CQkJCTxwYXRoIGlkPSJwYXRoNDY2NTQiIGlua3NjYXBlOmNvbm5lY3Rvci1jdXJ2YXR1cmU9IjAiIHN0eWxlPSJmaWxsOm5vbmU7c3Ryb2tlOiM1NTZBOEE7c3Ryb2tlLXdpZHRoOjEuNTtzdHJva2UtbWl0ZXJsaW1pdDozOyIgZD0iICAgICBNMCw0OS4xOWgyNy43NSIvPiYjeGE7CQk8L2c+JiN4YTsJCTxnIGlkPSJzaGFwZTQ0MDktMjAiIHRyYW5zZm9ybT0icm90YXRlKDkwLDI1LjM5ODc1LDQ3LjA0Mzc1KSI+JiN4YTsJCQk8dGl0bGUgaWQ9InRpdGxlNDY2NTciPmxpbmU0Mjg5PC90aXRsZT4mI3hhOwkJCSYjeGE7CQkJCTxwYXRoIGlkPSJwYXRoNDY2NTkiIGlua3NjYXBlOmNvbm5lY3Rvci1jdXJ2YXR1cmU9IjAiIHN0eWxlPSJmaWxsOm5vbmU7c3Ryb2tlOiM1NTZBOEE7c3Ryb2tlLXdpZHRoOjEuNTtzdHJva2UtbWl0ZXJsaW1pdDozOyIgZD0iICAgICBNMCw0OS4xOWgxOCIvPiYjeGE7CQk8L2c+JiN4YTsJCTxnIGlkPSJzaGFwZTQ0MTAtMjMiIHRyYW5zZm9ybT0icm90YXRlKDkwLDI5Ljg5ODc1LDUxLjU0Mzc1KSI+JiN4YTsJCQk8dGl0bGUgaWQ9InRpdGxlNDY2NjIiPmxpbmU0MjkxPC90aXRsZT4mI3hhOwkJCSYjeGE7CQkJCTxwYXRoIGlkPSJwYXRoNDY2NjQiIGlua3NjYXBlOmNvbm5lY3Rvci1jdXJ2YXR1cmU9IjAiIHN0eWxlPSJmaWxsOm5vbmU7c3Ryb2tlOiM1NTZBOEE7c3Ryb2tlLXdpZHRoOjEuNTtzdHJva2UtbWl0ZXJsaW1pdDozOyIgZD0iICAgICBNMCw0OS4xOWgxOCIvPiYjeGE7CQk8L2c+JiN4YTsJPC9nPiYjeGE7PC9nPiYjeGE7PC9zdmc+;" vertex="1" parent="1">
          <mxGeometry x="10" y="-40" width="44.79" height="50" as="geometry" />
        </mxCell>
        <mxCell id="P7VSxlDMBpMuydGatJfI-68" style="edgeStyle=orthogonalEdgeStyle;rounded=0;orthogonalLoop=1;jettySize=auto;html=1;" edge="1" parent="1" source="P7VSxlDMBpMuydGatJfI-58" target="P7VSxlDMBpMuydGatJfI-63">
          <mxGeometry relative="1" as="geometry" />
        </mxCell>
        <mxCell id="P7VSxlDMBpMuydGatJfI-58" value="" style="shape=image;verticalLabelPosition=bottom;labelBackgroundColor=#ffffff;verticalAlign=top;aspect=fixed;imageAspect=0;image=data:image/svg+xml,PHN2ZyB4bWxuczpjYz0iaHR0cDovL2NyZWF0aXZlY29tbW9ucy5vcmcvbnMjIiB4bWxuczpkYz0iaHR0cDovL3B1cmwub3JnL2RjL2VsZW1lbnRzLzEuMS8iIHhtbG5zOmlua3NjYXBlPSJodHRwOi8vd3d3Lmlua3NjYXBlLm9yZy9uYW1lc3BhY2VzL2lua3NjYXBlIiB4bWxuczpyZGY9Imh0dHA6Ly93d3cudzMub3JnLzE5OTkvMDIvMjItcmRmLXN5bnRheC1ucyMiIHhtbG5zOnNvZGlwb2RpPSJodHRwOi8vc29kaXBvZGkuc291cmNlZm9yZ2UubmV0L0RURC9zb2RpcG9kaS0wLmR0ZCIgeG1sbnM6c3ZnPSJodHRwOi8vd3d3LnczLm9yZy8yMDAwL3N2ZyIgeG1sbnM9Imh0dHA6Ly93d3cudzMub3JnLzIwMDAvc3ZnIiB4bWxuczp4bGluaz0iaHR0cDovL3d3dy53My5vcmcvMTk5OS94bGluayIgdmVyc2lvbj0iMS4xIiBpZD0ic3ZnNDY2NzAiIGlua3NjYXBlOnZlcnNpb249IjAuOTIuMyAoMjQwNTU0NiwgMjAxOC0wMy0xMSkiIHNvZGlwb2RpOmRvY25hbWU9ImRhdGFiYXNlX2FuZF90YWJsZS5zdmciIHg9IjBweCIgeT0iMHB4IiB2aWV3Qm94PSIwIDAgNDIuNzUgNDcuNjkiIHN0eWxlPSJlbmFibGUtYmFja2dyb3VuZDpuZXcgMCAwIDQyLjc1IDQ3LjY5OyIgeG1sOnNwYWNlPSJwcmVzZXJ2ZSI+JiN4YTs8c29kaXBvZGk6bmFtZWR2aWV3IGJvcmRlcmNvbG9yPSIjNjY2NjY2IiBib3JkZXJvcGFjaXR5PSIxIiBmaXQtbWFyZ2luLWJvdHRvbT0iMCIgZml0LW1hcmdpbi1sZWZ0PSIwIiBmaXQtbWFyZ2luLXJpZ2h0PSIwIiBmaXQtbWFyZ2luLXRvcD0iMCIgZ3JpZHRvbGVyYW5jZT0iMTAiIGd1aWRldG9sZXJhbmNlPSIxMCIgaWQ9Im5hbWVkdmlldzQ2NjcyIiBpbmtzY2FwZTpjdXJyZW50LWxheWVyPSJzdmc0NjY3MCIgaW5rc2NhcGU6Y3g9IjIyLjI4MTUzNCIgaW5rc2NhcGU6Y3k9IjE5Ljc5OTQwOSIgaW5rc2NhcGU6cGFnZW9wYWNpdHk9IjAiIGlua3NjYXBlOnBhZ2VzaGFkb3c9IjIiIGlua3NjYXBlOndpbmRvdy1oZWlnaHQ9IjEwMTciIGlua3NjYXBlOndpbmRvdy1tYXhpbWl6ZWQ9IjEiIGlua3NjYXBlOndpbmRvdy13aWR0aD0iMTkyMCIgaW5rc2NhcGU6d2luZG93LXg9Ii04IiBpbmtzY2FwZTp3aW5kb3cteT0iLTgiIGlua3NjYXBlOnpvb209IjYuNjA5MjQwNSIgb2JqZWN0dG9sZXJhbmNlPSIxMCIgcGFnZWNvbG9yPSIjZmZmZmZmIiBzaG93Z3JpZD0iZmFsc2UiPiYjeGE7CTwvc29kaXBvZGk6bmFtZWR2aWV3PiYjeGE7PGcgaWQ9Imc0NjY2OCIgdHJhbnNmb3JtPSJ0cmFuc2xhdGUoLTAuNzUsLTAuNzQ1KSI+JiN4YTsJPHRpdGxlIGlkPSJ0aXRsZTQ2NjE0Ij5QYWdlLTE8L3RpdGxlPiYjeGE7CTxnIGlkPSJncm91cDQ0MDEtMSIgdHJhbnNmb3JtPSJ0cmFuc2xhdGUoMS41LC0xLjUpIj4mI3hhOwkJPHRpdGxlIGlkPSJ0aXRsZTQ2NjE2Ij5EYXRhYmFzZSBhbmQgVGFibGU8L3RpdGxlPiYjeGE7CQk8ZyBpZD0ic2hhcGU0NDAyLTIiPiYjeGE7CQkJPHRpdGxlIGlkPSJ0aXRsZTQ2NjE4Ij5wYXRoNDI3MzwvdGl0bGU+JiN4YTsJCQk8cGF0aCBpZD0icGF0aDQ2NjIwIiBpbmtzY2FwZTpjb25uZWN0b3ItY3VydmF0dXJlPSIwIiBzdHlsZT0iZmlsbDojRkZGRkZGOyIgZD0iTTMxLjc5LDlMMjEuNDQsOS4wOUwwLDkuMjd2MzMuMzcgICAgIGMwLDMuNDIsNy41LDYuMzcsMTcuMjUsNi41NWgwLjM3YzEuMzIsMCwyLjYtMC4wNywzLjgyLTAuMTljMy41Ny0wLjIyLDcuMDgtMS4wNywxMC4zNS0yLjUzYzIuMTktMS4xLDMuNDYtMi40NCwzLjQ2LTMuODNWOC45NyAgICAgTDMxLjc5LDl6Ii8+JiN4YTsJCTwvZz4mI3hhOwkJPGcgaWQ9InNoYXBlNDQwMy00IiB0cmFuc2Zvcm09InRyYW5zbGF0ZSgyMS4xNSwtMC4yMSkiPiYjeGE7CQkJPHRpdGxlIGlkPSJ0aXRsZTQ2NjIzIj5wYXRoNDI3NTwvdGl0bGU+JiN4YTsJCQk8cGF0aCBpZD0icGF0aDQ2NjI1IiBpbmtzY2FwZTpjb25uZWN0b3ItY3VydmF0dXJlPSIwIiBzdHlsZT0iZmlsbDojRTVFNUU1OyIgZD0iTTEwLjM1LDkuMjF2MzcuNDUgICAgIEM3LjA4LDQ4LjEyLDMuNTcsNDguOTcsMCw0OS4xOVY5LjNMMTAuMzUsOS4yMXoiLz4mI3hhOwkJPC9nPiYjeGE7CQk8ZyBpZD0ic2hhcGU0NDA0LTYiPiYjeGE7CQkJPHRpdGxlIGlkPSJ0aXRsZTQ2NjI4Ij5wYXRoNDI3NzwvdGl0bGU+JiN4YTsJCQk8cGF0aCBpZD0icGF0aDQ2NjMwIiBpbmtzY2FwZTpjb25uZWN0b3ItY3VydmF0dXJlPSIwIiBzdHlsZT0iZmlsbDpub25lOyIgZD0iTTAsOS4yN3YzMy4zN2MwLDMuNDIsNy40Niw2LjM3LDE3LjI1LDYuNTVoMC4zNyAgICAgYzkuOTctMC4xMywxNy42My0zLjEsMTcuNjMtNi41NVY4Ljk3TDAsOS4yN3oiLz4mI3hhOwkJCSYjeGE7CQkJCTxwYXRoIGlkPSJwYXRoNDY2MzIiIGlua3NjYXBlOmNvbm5lY3Rvci1jdXJ2YXR1cmU9IjAiIHN0eWxlPSJmaWxsOm5vbmU7c3Ryb2tlOiM1NTZBOEE7c3Ryb2tlLXdpZHRoOjEuNTtzdHJva2UtbWl0ZXJsaW1pdDozOyIgZD0iICAgICBNMCw5LjI3djMzLjM3YzAsMy40Miw3LjQ2LDYuMzcsMTcuMjUsNi41NWgwLjM3YzkuOTctMC4xMywxNy42My0zLjEsMTcuNjMtNi41NVY4Ljk3Ii8+JiN4YTsJCTwvZz4mI3hhOwkJPGcgaWQ9InNoYXBlNDQwNS05IiB0cmFuc2Zvcm09InRyYW5zbGF0ZSgwLjA0NSwtMzMuNDY1KSI+JiN4YTsJCQk8dGl0bGUgaWQ9InRpdGxlNDY2MzUiPnBhdGg0Mjc5PC90aXRsZT4mI3hhOwkJCTxwYXRoIGlkPSJwYXRoNDY2MzciIGlua3NjYXBlOmNvbm5lY3Rvci1jdXJ2YXR1cmU9IjAiIHN0eWxlPSJmaWxsOiNCQUQ4MEE7IiBkPSJNMzUuMjUsNDIuODJjMCwzLjUyLTcuODksNi4zNy0xNy42Myw2LjM3ICAgICBDNy44OSw0OS4xOSwwLDQ2LjM0LDAsNDIuODJjMC0zLjUxLDguMTItNi4zNiwxNy44Ni02LjM2QzI3LjU5LDM2LjQ2LDM1LjI1LDM5LjMxLDM1LjI1LDQyLjgyTDM1LjI1LDQyLjgyeiIvPiYjeGE7CQkJJiN4YTsJCQkJPHBhdGggaWQ9InBhdGg0NjYzOSIgaW5rc2NhcGU6Y29ubmVjdG9yLWN1cnZhdHVyZT0iMCIgc3R5bGU9ImZpbGw6bm9uZTtzdHJva2U6IzU1NkE4QTtzdHJva2Utd2lkdGg6MS41O3N0cm9rZS1taXRlcmxpbWl0OjM7IiBkPSIgICAgIE0zNS4yNSw0Mi44MmMwLDMuNTItNy44OSw2LjM3LTE3LjYzLDYuMzdDNy44OSw0OS4xOSwwLDQ2LjM0LDAsNDIuODJjMC0zLjUxLDguMTItNi4zNiwxNy44Ni02LjM2ICAgICBDMjcuNTksMzYuNDYsMzUuMjUsMzkuMzEsMzUuMjUsNDIuODIiLz4mI3hhOwkJPC9nPiYjeGE7CQk8ZyBpZD0ic2hhcGU0NDA2LTEyIiB0cmFuc2Zvcm09InRyYW5zbGF0ZSgxNC4yNSwtOS41NDc1KSI+JiN4YTsJCQk8dGl0bGUgaWQ9InRpdGxlNDY2NDIiPnJlY3Q0MjgzPC90aXRsZT4mI3hhOwkJCSYjeGE7CQkJCTxyZWN0IGlkPSJyZWN0NDY2NDQiIHk9IjMxLjE5IiBzdHlsZT0iZmlsbDojRkZGRkZGO3N0cm9rZTojNTU2QThBO3N0cm9rZS13aWR0aDoxLjU7c3Ryb2tlLW1pdGVybGltaXQ6MzsiIHdpZHRoPSIyNyIgaGVpZ2h0PSIxOCIvPiYjeGE7CQk8L2c+JiN4YTsJCTxnIGlkPSJzaGFwZTQ0MDctMTQiIHRyYW5zZm9ybT0idHJhbnNsYXRlKDE0LjI1LC0yMS41NDc1KSI+JiN4YTsJCQk8dGl0bGUgaWQ9InRpdGxlNDY2NDciPmxpbmU0Mjg1PC90aXRsZT4mI3hhOwkJCSYjeGE7CQkJCTxwYXRoIGlkPSJwYXRoNDY2NDkiIGlua3NjYXBlOmNvbm5lY3Rvci1jdXJ2YXR1cmU9IjAiIHN0eWxlPSJmaWxsOm5vbmU7c3Ryb2tlOiM1NTZBOEE7c3Ryb2tlLXdpZHRoOjEuNTtzdHJva2UtbWl0ZXJsaW1pdDozOyIgZD0iICAgICBNMCw0OS4xOWgyNy43NSIvPiYjeGE7CQk8L2c+JiN4YTsJCTxnIGlkPSJzaGFwZTQ0MDgtMTciIHRyYW5zZm9ybT0idHJhbnNsYXRlKDE0LjI1LC0xNS41NDc1KSI+JiN4YTsJCQk8dGl0bGUgaWQ9InRpdGxlNDY2NTIiPmxpbmU0Mjg3PC90aXRsZT4mI3hhOwkJCSYjeGE7CQkJCTxwYXRoIGlkPSJwYXRoNDY2NTQiIGlua3NjYXBlOmNvbm5lY3Rvci1jdXJ2YXR1cmU9IjAiIHN0eWxlPSJmaWxsOm5vbmU7c3Ryb2tlOiM1NTZBOEE7c3Ryb2tlLXdpZHRoOjEuNTtzdHJva2UtbWl0ZXJsaW1pdDozOyIgZD0iICAgICBNMCw0OS4xOWgyNy43NSIvPiYjeGE7CQk8L2c+JiN4YTsJCTxnIGlkPSJzaGFwZTQ0MDktMjAiIHRyYW5zZm9ybT0icm90YXRlKDkwLDI1LjM5ODc1LDQ3LjA0Mzc1KSI+JiN4YTsJCQk8dGl0bGUgaWQ9InRpdGxlNDY2NTciPmxpbmU0Mjg5PC90aXRsZT4mI3hhOwkJCSYjeGE7CQkJCTxwYXRoIGlkPSJwYXRoNDY2NTkiIGlua3NjYXBlOmNvbm5lY3Rvci1jdXJ2YXR1cmU9IjAiIHN0eWxlPSJmaWxsOm5vbmU7c3Ryb2tlOiM1NTZBOEE7c3Ryb2tlLXdpZHRoOjEuNTtzdHJva2UtbWl0ZXJsaW1pdDozOyIgZD0iICAgICBNMCw0OS4xOWgxOCIvPiYjeGE7CQk8L2c+JiN4YTsJCTxnIGlkPSJzaGFwZTQ0MTAtMjMiIHRyYW5zZm9ybT0icm90YXRlKDkwLDI5Ljg5ODc1LDUxLjU0Mzc1KSI+JiN4YTsJCQk8dGl0bGUgaWQ9InRpdGxlNDY2NjIiPmxpbmU0MjkxPC90aXRsZT4mI3hhOwkJCSYjeGE7CQkJCTxwYXRoIGlkPSJwYXRoNDY2NjQiIGlua3NjYXBlOmNvbm5lY3Rvci1jdXJ2YXR1cmU9IjAiIHN0eWxlPSJmaWxsOm5vbmU7c3Ryb2tlOiM1NTZBOEE7c3Ryb2tlLXdpZHRoOjEuNTtzdHJva2UtbWl0ZXJsaW1pdDozOyIgZD0iICAgICBNMCw0OS4xOWgxOCIvPiYjeGE7CQk8L2c+JiN4YTsJPC9nPiYjeGE7PC9nPiYjeGE7PC9zdmc+;" vertex="1" parent="1">
          <mxGeometry x="100" y="70" width="35.83" height="40" as="geometry" />
        </mxCell>
        <mxCell id="P7VSxlDMBpMuydGatJfI-59" value="" style="shape=image;verticalLabelPosition=bottom;labelBackgroundColor=#ffffff;verticalAlign=top;aspect=fixed;imageAspect=0;image=data:image/svg+xml,PHN2ZyB4bWxuczpjYz0iaHR0cDovL2NyZWF0aXZlY29tbW9ucy5vcmcvbnMjIiB4bWxuczpkYz0iaHR0cDovL3B1cmwub3JnL2RjL2VsZW1lbnRzLzEuMS8iIHhtbG5zOmlua3NjYXBlPSJodHRwOi8vd3d3Lmlua3NjYXBlLm9yZy9uYW1lc3BhY2VzL2lua3NjYXBlIiB4bWxuczpyZGY9Imh0dHA6Ly93d3cudzMub3JnLzE5OTkvMDIvMjItcmRmLXN5bnRheC1ucyMiIHhtbG5zOnNvZGlwb2RpPSJodHRwOi8vc29kaXBvZGkuc291cmNlZm9yZ2UubmV0L0RURC9zb2RpcG9kaS0wLmR0ZCIgeG1sbnM6c3ZnPSJodHRwOi8vd3d3LnczLm9yZy8yMDAwL3N2ZyIgeG1sbnM9Imh0dHA6Ly93d3cudzMub3JnLzIwMDAvc3ZnIiB4bWxuczp4bGluaz0iaHR0cDovL3d3dy53My5vcmcvMTk5OS94bGluayIgdmVyc2lvbj0iMS4xIiBpZD0ic3ZnNDY2NzAiIGlua3NjYXBlOnZlcnNpb249IjAuOTIuMyAoMjQwNTU0NiwgMjAxOC0wMy0xMSkiIHNvZGlwb2RpOmRvY25hbWU9ImRhdGFiYXNlX2FuZF90YWJsZS5zdmciIHg9IjBweCIgeT0iMHB4IiB2aWV3Qm94PSIwIDAgNDIuNzUgNDcuNjkiIHN0eWxlPSJlbmFibGUtYmFja2dyb3VuZDpuZXcgMCAwIDQyLjc1IDQ3LjY5OyIgeG1sOnNwYWNlPSJwcmVzZXJ2ZSI+JiN4YTs8c29kaXBvZGk6bmFtZWR2aWV3IGJvcmRlcmNvbG9yPSIjNjY2NjY2IiBib3JkZXJvcGFjaXR5PSIxIiBmaXQtbWFyZ2luLWJvdHRvbT0iMCIgZml0LW1hcmdpbi1sZWZ0PSIwIiBmaXQtbWFyZ2luLXJpZ2h0PSIwIiBmaXQtbWFyZ2luLXRvcD0iMCIgZ3JpZHRvbGVyYW5jZT0iMTAiIGd1aWRldG9sZXJhbmNlPSIxMCIgaWQ9Im5hbWVkdmlldzQ2NjcyIiBpbmtzY2FwZTpjdXJyZW50LWxheWVyPSJzdmc0NjY3MCIgaW5rc2NhcGU6Y3g9IjIyLjI4MTUzNCIgaW5rc2NhcGU6Y3k9IjE5Ljc5OTQwOSIgaW5rc2NhcGU6cGFnZW9wYWNpdHk9IjAiIGlua3NjYXBlOnBhZ2VzaGFkb3c9IjIiIGlua3NjYXBlOndpbmRvdy1oZWlnaHQ9IjEwMTciIGlua3NjYXBlOndpbmRvdy1tYXhpbWl6ZWQ9IjEiIGlua3NjYXBlOndpbmRvdy13aWR0aD0iMTkyMCIgaW5rc2NhcGU6d2luZG93LXg9Ii04IiBpbmtzY2FwZTp3aW5kb3cteT0iLTgiIGlua3NjYXBlOnpvb209IjYuNjA5MjQwNSIgb2JqZWN0dG9sZXJhbmNlPSIxMCIgcGFnZWNvbG9yPSIjZmZmZmZmIiBzaG93Z3JpZD0iZmFsc2UiPiYjeGE7CTwvc29kaXBvZGk6bmFtZWR2aWV3PiYjeGE7PGcgaWQ9Imc0NjY2OCIgdHJhbnNmb3JtPSJ0cmFuc2xhdGUoLTAuNzUsLTAuNzQ1KSI+JiN4YTsJPHRpdGxlIGlkPSJ0aXRsZTQ2NjE0Ij5QYWdlLTE8L3RpdGxlPiYjeGE7CTxnIGlkPSJncm91cDQ0MDEtMSIgdHJhbnNmb3JtPSJ0cmFuc2xhdGUoMS41LC0xLjUpIj4mI3hhOwkJPHRpdGxlIGlkPSJ0aXRsZTQ2NjE2Ij5EYXRhYmFzZSBhbmQgVGFibGU8L3RpdGxlPiYjeGE7CQk8ZyBpZD0ic2hhcGU0NDAyLTIiPiYjeGE7CQkJPHRpdGxlIGlkPSJ0aXRsZTQ2NjE4Ij5wYXRoNDI3MzwvdGl0bGU+JiN4YTsJCQk8cGF0aCBpZD0icGF0aDQ2NjIwIiBpbmtzY2FwZTpjb25uZWN0b3ItY3VydmF0dXJlPSIwIiBzdHlsZT0iZmlsbDojRkZGRkZGOyIgZD0iTTMxLjc5LDlMMjEuNDQsOS4wOUwwLDkuMjd2MzMuMzcgICAgIGMwLDMuNDIsNy41LDYuMzcsMTcuMjUsNi41NWgwLjM3YzEuMzIsMCwyLjYtMC4wNywzLjgyLTAuMTljMy41Ny0wLjIyLDcuMDgtMS4wNywxMC4zNS0yLjUzYzIuMTktMS4xLDMuNDYtMi40NCwzLjQ2LTMuODNWOC45NyAgICAgTDMxLjc5LDl6Ii8+JiN4YTsJCTwvZz4mI3hhOwkJPGcgaWQ9InNoYXBlNDQwMy00IiB0cmFuc2Zvcm09InRyYW5zbGF0ZSgyMS4xNSwtMC4yMSkiPiYjeGE7CQkJPHRpdGxlIGlkPSJ0aXRsZTQ2NjIzIj5wYXRoNDI3NTwvdGl0bGU+JiN4YTsJCQk8cGF0aCBpZD0icGF0aDQ2NjI1IiBpbmtzY2FwZTpjb25uZWN0b3ItY3VydmF0dXJlPSIwIiBzdHlsZT0iZmlsbDojRTVFNUU1OyIgZD0iTTEwLjM1LDkuMjF2MzcuNDUgICAgIEM3LjA4LDQ4LjEyLDMuNTcsNDguOTcsMCw0OS4xOVY5LjNMMTAuMzUsOS4yMXoiLz4mI3hhOwkJPC9nPiYjeGE7CQk8ZyBpZD0ic2hhcGU0NDA0LTYiPiYjeGE7CQkJPHRpdGxlIGlkPSJ0aXRsZTQ2NjI4Ij5wYXRoNDI3NzwvdGl0bGU+JiN4YTsJCQk8cGF0aCBpZD0icGF0aDQ2NjMwIiBpbmtzY2FwZTpjb25uZWN0b3ItY3VydmF0dXJlPSIwIiBzdHlsZT0iZmlsbDpub25lOyIgZD0iTTAsOS4yN3YzMy4zN2MwLDMuNDIsNy40Niw2LjM3LDE3LjI1LDYuNTVoMC4zNyAgICAgYzkuOTctMC4xMywxNy42My0zLjEsMTcuNjMtNi41NVY4Ljk3TDAsOS4yN3oiLz4mI3hhOwkJCSYjeGE7CQkJCTxwYXRoIGlkPSJwYXRoNDY2MzIiIGlua3NjYXBlOmNvbm5lY3Rvci1jdXJ2YXR1cmU9IjAiIHN0eWxlPSJmaWxsOm5vbmU7c3Ryb2tlOiM1NTZBOEE7c3Ryb2tlLXdpZHRoOjEuNTtzdHJva2UtbWl0ZXJsaW1pdDozOyIgZD0iICAgICBNMCw5LjI3djMzLjM3YzAsMy40Miw3LjQ2LDYuMzcsMTcuMjUsNi41NWgwLjM3YzkuOTctMC4xMywxNy42My0zLjEsMTcuNjMtNi41NVY4Ljk3Ii8+JiN4YTsJCTwvZz4mI3hhOwkJPGcgaWQ9InNoYXBlNDQwNS05IiB0cmFuc2Zvcm09InRyYW5zbGF0ZSgwLjA0NSwtMzMuNDY1KSI+JiN4YTsJCQk8dGl0bGUgaWQ9InRpdGxlNDY2MzUiPnBhdGg0Mjc5PC90aXRsZT4mI3hhOwkJCTxwYXRoIGlkPSJwYXRoNDY2MzciIGlua3NjYXBlOmNvbm5lY3Rvci1jdXJ2YXR1cmU9IjAiIHN0eWxlPSJmaWxsOiNCQUQ4MEE7IiBkPSJNMzUuMjUsNDIuODJjMCwzLjUyLTcuODksNi4zNy0xNy42Myw2LjM3ICAgICBDNy44OSw0OS4xOSwwLDQ2LjM0LDAsNDIuODJjMC0zLjUxLDguMTItNi4zNiwxNy44Ni02LjM2QzI3LjU5LDM2LjQ2LDM1LjI1LDM5LjMxLDM1LjI1LDQyLjgyTDM1LjI1LDQyLjgyeiIvPiYjeGE7CQkJJiN4YTsJCQkJPHBhdGggaWQ9InBhdGg0NjYzOSIgaW5rc2NhcGU6Y29ubmVjdG9yLWN1cnZhdHVyZT0iMCIgc3R5bGU9ImZpbGw6bm9uZTtzdHJva2U6IzU1NkE4QTtzdHJva2Utd2lkdGg6MS41O3N0cm9rZS1taXRlcmxpbWl0OjM7IiBkPSIgICAgIE0zNS4yNSw0Mi44MmMwLDMuNTItNy44OSw2LjM3LTE3LjYzLDYuMzdDNy44OSw0OS4xOSwwLDQ2LjM0LDAsNDIuODJjMC0zLjUxLDguMTItNi4zNiwxNy44Ni02LjM2ICAgICBDMjcuNTksMzYuNDYsMzUuMjUsMzkuMzEsMzUuMjUsNDIuODIiLz4mI3hhOwkJPC9nPiYjeGE7CQk8ZyBpZD0ic2hhcGU0NDA2LTEyIiB0cmFuc2Zvcm09InRyYW5zbGF0ZSgxNC4yNSwtOS41NDc1KSI+JiN4YTsJCQk8dGl0bGUgaWQ9InRpdGxlNDY2NDIiPnJlY3Q0MjgzPC90aXRsZT4mI3hhOwkJCSYjeGE7CQkJCTxyZWN0IGlkPSJyZWN0NDY2NDQiIHk9IjMxLjE5IiBzdHlsZT0iZmlsbDojRkZGRkZGO3N0cm9rZTojNTU2QThBO3N0cm9rZS13aWR0aDoxLjU7c3Ryb2tlLW1pdGVybGltaXQ6MzsiIHdpZHRoPSIyNyIgaGVpZ2h0PSIxOCIvPiYjeGE7CQk8L2c+JiN4YTsJCTxnIGlkPSJzaGFwZTQ0MDctMTQiIHRyYW5zZm9ybT0idHJhbnNsYXRlKDE0LjI1LC0yMS41NDc1KSI+JiN4YTsJCQk8dGl0bGUgaWQ9InRpdGxlNDY2NDciPmxpbmU0Mjg1PC90aXRsZT4mI3hhOwkJCSYjeGE7CQkJCTxwYXRoIGlkPSJwYXRoNDY2NDkiIGlua3NjYXBlOmNvbm5lY3Rvci1jdXJ2YXR1cmU9IjAiIHN0eWxlPSJmaWxsOm5vbmU7c3Ryb2tlOiM1NTZBOEE7c3Ryb2tlLXdpZHRoOjEuNTtzdHJva2UtbWl0ZXJsaW1pdDozOyIgZD0iICAgICBNMCw0OS4xOWgyNy43NSIvPiYjeGE7CQk8L2c+JiN4YTsJCTxnIGlkPSJzaGFwZTQ0MDgtMTciIHRyYW5zZm9ybT0idHJhbnNsYXRlKDE0LjI1LC0xNS41NDc1KSI+JiN4YTsJCQk8dGl0bGUgaWQ9InRpdGxlNDY2NTIiPmxpbmU0Mjg3PC90aXRsZT4mI3hhOwkJCSYjeGE7CQkJCTxwYXRoIGlkPSJwYXRoNDY2NTQiIGlua3NjYXBlOmNvbm5lY3Rvci1jdXJ2YXR1cmU9IjAiIHN0eWxlPSJmaWxsOm5vbmU7c3Ryb2tlOiM1NTZBOEE7c3Ryb2tlLXdpZHRoOjEuNTtzdHJva2UtbWl0ZXJsaW1pdDozOyIgZD0iICAgICBNMCw0OS4xOWgyNy43NSIvPiYjeGE7CQk8L2c+JiN4YTsJCTxnIGlkPSJzaGFwZTQ0MDktMjAiIHRyYW5zZm9ybT0icm90YXRlKDkwLDI1LjM5ODc1LDQ3LjA0Mzc1KSI+JiN4YTsJCQk8dGl0bGUgaWQ9InRpdGxlNDY2NTciPmxpbmU0Mjg5PC90aXRsZT4mI3hhOwkJCSYjeGE7CQkJCTxwYXRoIGlkPSJwYXRoNDY2NTkiIGlua3NjYXBlOmNvbm5lY3Rvci1jdXJ2YXR1cmU9IjAiIHN0eWxlPSJmaWxsOm5vbmU7c3Ryb2tlOiM1NTZBOEE7c3Ryb2tlLXdpZHRoOjEuNTtzdHJva2UtbWl0ZXJsaW1pdDozOyIgZD0iICAgICBNMCw0OS4xOWgxOCIvPiYjeGE7CQk8L2c+JiN4YTsJCTxnIGlkPSJzaGFwZTQ0MTAtMjMiIHRyYW5zZm9ybT0icm90YXRlKDkwLDI5Ljg5ODc1LDUxLjU0Mzc1KSI+JiN4YTsJCQk8dGl0bGUgaWQ9InRpdGxlNDY2NjIiPmxpbmU0MjkxPC90aXRsZT4mI3hhOwkJCSYjeGE7CQkJCTxwYXRoIGlkPSJwYXRoNDY2NjQiIGlua3NjYXBlOmNvbm5lY3Rvci1jdXJ2YXR1cmU9IjAiIHN0eWxlPSJmaWxsOm5vbmU7c3Ryb2tlOiM1NTZBOEE7c3Ryb2tlLXdpZHRoOjEuNTtzdHJva2UtbWl0ZXJsaW1pdDozOyIgZD0iICAgICBNMCw0OS4xOWgxOCIvPiYjeGE7CQk8L2c+JiN4YTsJPC9nPiYjeGE7PC9nPiYjeGE7PC9zdmc+;" vertex="1" parent="1">
          <mxGeometry x="35.21" y="29" width="44.79" height="50" as="geometry" />
        </mxCell>
        <mxCell id="P7VSxlDMBpMuydGatJfI-64" style="edgeStyle=orthogonalEdgeStyle;rounded=0;orthogonalLoop=1;jettySize=auto;html=1;" edge="1" parent="1" source="P7VSxlDMBpMuydGatJfI-60">
          <mxGeometry relative="1" as="geometry">
            <mxPoint x="130" y="-30" as="targetPoint" />
          </mxGeometry>
        </mxCell>
        <mxCell id="P7VSxlDMBpMuydGatJfI-60" value="" style="shape=image;verticalLabelPosition=bottom;labelBackgroundColor=#ffffff;verticalAlign=top;aspect=fixed;imageAspect=0;image=data:image/svg+xml,PHN2ZyB4bWxuczpjYz0iaHR0cDovL2NyZWF0aXZlY29tbW9ucy5vcmcvbnMjIiB4bWxuczpkYz0iaHR0cDovL3B1cmwub3JnL2RjL2VsZW1lbnRzLzEuMS8iIHhtbG5zOmlua3NjYXBlPSJodHRwOi8vd3d3Lmlua3NjYXBlLm9yZy9uYW1lc3BhY2VzL2lua3NjYXBlIiB4bWxuczpyZGY9Imh0dHA6Ly93d3cudzMub3JnLzE5OTkvMDIvMjItcmRmLXN5bnRheC1ucyMiIHhtbG5zOnNvZGlwb2RpPSJodHRwOi8vc29kaXBvZGkuc291cmNlZm9yZ2UubmV0L0RURC9zb2RpcG9kaS0wLmR0ZCIgeG1sbnM6c3ZnPSJodHRwOi8vd3d3LnczLm9yZy8yMDAwL3N2ZyIgeG1sbnM9Imh0dHA6Ly93d3cudzMub3JnLzIwMDAvc3ZnIiB4bWxuczp4bGluaz0iaHR0cDovL3d3dy53My5vcmcvMTk5OS94bGluayIgdmVyc2lvbj0iMS4xIiBpZD0ic3ZnNDY2NzAiIGlua3NjYXBlOnZlcnNpb249IjAuOTIuMyAoMjQwNTU0NiwgMjAxOC0wMy0xMSkiIHNvZGlwb2RpOmRvY25hbWU9ImRhdGFiYXNlX2FuZF90YWJsZS5zdmciIHg9IjBweCIgeT0iMHB4IiB2aWV3Qm94PSIwIDAgNDIuNzUgNDcuNjkiIHN0eWxlPSJlbmFibGUtYmFja2dyb3VuZDpuZXcgMCAwIDQyLjc1IDQ3LjY5OyIgeG1sOnNwYWNlPSJwcmVzZXJ2ZSI+JiN4YTs8c29kaXBvZGk6bmFtZWR2aWV3IGJvcmRlcmNvbG9yPSIjNjY2NjY2IiBib3JkZXJvcGFjaXR5PSIxIiBmaXQtbWFyZ2luLWJvdHRvbT0iMCIgZml0LW1hcmdpbi1sZWZ0PSIwIiBmaXQtbWFyZ2luLXJpZ2h0PSIwIiBmaXQtbWFyZ2luLXRvcD0iMCIgZ3JpZHRvbGVyYW5jZT0iMTAiIGd1aWRldG9sZXJhbmNlPSIxMCIgaWQ9Im5hbWVkdmlldzQ2NjcyIiBpbmtzY2FwZTpjdXJyZW50LWxheWVyPSJzdmc0NjY3MCIgaW5rc2NhcGU6Y3g9IjIyLjI4MTUzNCIgaW5rc2NhcGU6Y3k9IjE5Ljc5OTQwOSIgaW5rc2NhcGU6cGFnZW9wYWNpdHk9IjAiIGlua3NjYXBlOnBhZ2VzaGFkb3c9IjIiIGlua3NjYXBlOndpbmRvdy1oZWlnaHQ9IjEwMTciIGlua3NjYXBlOndpbmRvdy1tYXhpbWl6ZWQ9IjEiIGlua3NjYXBlOndpbmRvdy13aWR0aD0iMTkyMCIgaW5rc2NhcGU6d2luZG93LXg9Ii04IiBpbmtzY2FwZTp3aW5kb3cteT0iLTgiIGlua3NjYXBlOnpvb209IjYuNjA5MjQwNSIgb2JqZWN0dG9sZXJhbmNlPSIxMCIgcGFnZWNvbG9yPSIjZmZmZmZmIiBzaG93Z3JpZD0iZmFsc2UiPiYjeGE7CTwvc29kaXBvZGk6bmFtZWR2aWV3PiYjeGE7PGcgaWQ9Imc0NjY2OCIgdHJhbnNmb3JtPSJ0cmFuc2xhdGUoLTAuNzUsLTAuNzQ1KSI+JiN4YTsJPHRpdGxlIGlkPSJ0aXRsZTQ2NjE0Ij5QYWdlLTE8L3RpdGxlPiYjeGE7CTxnIGlkPSJncm91cDQ0MDEtMSIgdHJhbnNmb3JtPSJ0cmFuc2xhdGUoMS41LC0xLjUpIj4mI3hhOwkJPHRpdGxlIGlkPSJ0aXRsZTQ2NjE2Ij5EYXRhYmFzZSBhbmQgVGFibGU8L3RpdGxlPiYjeGE7CQk8ZyBpZD0ic2hhcGU0NDAyLTIiPiYjeGE7CQkJPHRpdGxlIGlkPSJ0aXRsZTQ2NjE4Ij5wYXRoNDI3MzwvdGl0bGU+JiN4YTsJCQk8cGF0aCBpZD0icGF0aDQ2NjIwIiBpbmtzY2FwZTpjb25uZWN0b3ItY3VydmF0dXJlPSIwIiBzdHlsZT0iZmlsbDojRkZGRkZGOyIgZD0iTTMxLjc5LDlMMjEuNDQsOS4wOUwwLDkuMjd2MzMuMzcgICAgIGMwLDMuNDIsNy41LDYuMzcsMTcuMjUsNi41NWgwLjM3YzEuMzIsMCwyLjYtMC4wNywzLjgyLTAuMTljMy41Ny0wLjIyLDcuMDgtMS4wNywxMC4zNS0yLjUzYzIuMTktMS4xLDMuNDYtMi40NCwzLjQ2LTMuODNWOC45NyAgICAgTDMxLjc5LDl6Ii8+JiN4YTsJCTwvZz4mI3hhOwkJPGcgaWQ9InNoYXBlNDQwMy00IiB0cmFuc2Zvcm09InRyYW5zbGF0ZSgyMS4xNSwtMC4yMSkiPiYjeGE7CQkJPHRpdGxlIGlkPSJ0aXRsZTQ2NjIzIj5wYXRoNDI3NTwvdGl0bGU+JiN4YTsJCQk8cGF0aCBpZD0icGF0aDQ2NjI1IiBpbmtzY2FwZTpjb25uZWN0b3ItY3VydmF0dXJlPSIwIiBzdHlsZT0iZmlsbDojRTVFNUU1OyIgZD0iTTEwLjM1LDkuMjF2MzcuNDUgICAgIEM3LjA4LDQ4LjEyLDMuNTcsNDguOTcsMCw0OS4xOVY5LjNMMTAuMzUsOS4yMXoiLz4mI3hhOwkJPC9nPiYjeGE7CQk8ZyBpZD0ic2hhcGU0NDA0LTYiPiYjeGE7CQkJPHRpdGxlIGlkPSJ0aXRsZTQ2NjI4Ij5wYXRoNDI3NzwvdGl0bGU+JiN4YTsJCQk8cGF0aCBpZD0icGF0aDQ2NjMwIiBpbmtzY2FwZTpjb25uZWN0b3ItY3VydmF0dXJlPSIwIiBzdHlsZT0iZmlsbDpub25lOyIgZD0iTTAsOS4yN3YzMy4zN2MwLDMuNDIsNy40Niw2LjM3LDE3LjI1LDYuNTVoMC4zNyAgICAgYzkuOTctMC4xMywxNy42My0zLjEsMTcuNjMtNi41NVY4Ljk3TDAsOS4yN3oiLz4mI3hhOwkJCSYjeGE7CQkJCTxwYXRoIGlkPSJwYXRoNDY2MzIiIGlua3NjYXBlOmNvbm5lY3Rvci1jdXJ2YXR1cmU9IjAiIHN0eWxlPSJmaWxsOm5vbmU7c3Ryb2tlOiM1NTZBOEE7c3Ryb2tlLXdpZHRoOjEuNTtzdHJva2UtbWl0ZXJsaW1pdDozOyIgZD0iICAgICBNMCw5LjI3djMzLjM3YzAsMy40Miw3LjQ2LDYuMzcsMTcuMjUsNi41NWgwLjM3YzkuOTctMC4xMywxNy42My0zLjEsMTcuNjMtNi41NVY4Ljk3Ii8+JiN4YTsJCTwvZz4mI3hhOwkJPGcgaWQ9InNoYXBlNDQwNS05IiB0cmFuc2Zvcm09InRyYW5zbGF0ZSgwLjA0NSwtMzMuNDY1KSI+JiN4YTsJCQk8dGl0bGUgaWQ9InRpdGxlNDY2MzUiPnBhdGg0Mjc5PC90aXRsZT4mI3hhOwkJCTxwYXRoIGlkPSJwYXRoNDY2MzciIGlua3NjYXBlOmNvbm5lY3Rvci1jdXJ2YXR1cmU9IjAiIHN0eWxlPSJmaWxsOiNCQUQ4MEE7IiBkPSJNMzUuMjUsNDIuODJjMCwzLjUyLTcuODksNi4zNy0xNy42Myw2LjM3ICAgICBDNy44OSw0OS4xOSwwLDQ2LjM0LDAsNDIuODJjMC0zLjUxLDguMTItNi4zNiwxNy44Ni02LjM2QzI3LjU5LDM2LjQ2LDM1LjI1LDM5LjMxLDM1LjI1LDQyLjgyTDM1LjI1LDQyLjgyeiIvPiYjeGE7CQkJJiN4YTsJCQkJPHBhdGggaWQ9InBhdGg0NjYzOSIgaW5rc2NhcGU6Y29ubmVjdG9yLWN1cnZhdHVyZT0iMCIgc3R5bGU9ImZpbGw6bm9uZTtzdHJva2U6IzU1NkE4QTtzdHJva2Utd2lkdGg6MS41O3N0cm9rZS1taXRlcmxpbWl0OjM7IiBkPSIgICAgIE0zNS4yNSw0Mi44MmMwLDMuNTItNy44OSw2LjM3LTE3LjYzLDYuMzdDNy44OSw0OS4xOSwwLDQ2LjM0LDAsNDIuODJjMC0zLjUxLDguMTItNi4zNiwxNy44Ni02LjM2ICAgICBDMjcuNTksMzYuNDYsMzUuMjUsMzkuMzEsMzUuMjUsNDIuODIiLz4mI3hhOwkJPC9nPiYjeGE7CQk8ZyBpZD0ic2hhcGU0NDA2LTEyIiB0cmFuc2Zvcm09InRyYW5zbGF0ZSgxNC4yNSwtOS41NDc1KSI+JiN4YTsJCQk8dGl0bGUgaWQ9InRpdGxlNDY2NDIiPnJlY3Q0MjgzPC90aXRsZT4mI3hhOwkJCSYjeGE7CQkJCTxyZWN0IGlkPSJyZWN0NDY2NDQiIHk9IjMxLjE5IiBzdHlsZT0iZmlsbDojRkZGRkZGO3N0cm9rZTojNTU2QThBO3N0cm9rZS13aWR0aDoxLjU7c3Ryb2tlLW1pdGVybGltaXQ6MzsiIHdpZHRoPSIyNyIgaGVpZ2h0PSIxOCIvPiYjeGE7CQk8L2c+JiN4YTsJCTxnIGlkPSJzaGFwZTQ0MDctMTQiIHRyYW5zZm9ybT0idHJhbnNsYXRlKDE0LjI1LC0yMS41NDc1KSI+JiN4YTsJCQk8dGl0bGUgaWQ9InRpdGxlNDY2NDciPmxpbmU0Mjg1PC90aXRsZT4mI3hhOwkJCSYjeGE7CQkJCTxwYXRoIGlkPSJwYXRoNDY2NDkiIGlua3NjYXBlOmNvbm5lY3Rvci1jdXJ2YXR1cmU9IjAiIHN0eWxlPSJmaWxsOm5vbmU7c3Ryb2tlOiM1NTZBOEE7c3Ryb2tlLXdpZHRoOjEuNTtzdHJva2UtbWl0ZXJsaW1pdDozOyIgZD0iICAgICBNMCw0OS4xOWgyNy43NSIvPiYjeGE7CQk8L2c+JiN4YTsJCTxnIGlkPSJzaGFwZTQ0MDgtMTciIHRyYW5zZm9ybT0idHJhbnNsYXRlKDE0LjI1LC0xNS41NDc1KSI+JiN4YTsJCQk8dGl0bGUgaWQ9InRpdGxlNDY2NTIiPmxpbmU0Mjg3PC90aXRsZT4mI3hhOwkJCSYjeGE7CQkJCTxwYXRoIGlkPSJwYXRoNDY2NTQiIGlua3NjYXBlOmNvbm5lY3Rvci1jdXJ2YXR1cmU9IjAiIHN0eWxlPSJmaWxsOm5vbmU7c3Ryb2tlOiM1NTZBOEE7c3Ryb2tlLXdpZHRoOjEuNTtzdHJva2UtbWl0ZXJsaW1pdDozOyIgZD0iICAgICBNMCw0OS4xOWgyNy43NSIvPiYjeGE7CQk8L2c+JiN4YTsJCTxnIGlkPSJzaGFwZTQ0MDktMjAiIHRyYW5zZm9ybT0icm90YXRlKDkwLDI1LjM5ODc1LDQ3LjA0Mzc1KSI+JiN4YTsJCQk8dGl0bGUgaWQ9InRpdGxlNDY2NTciPmxpbmU0Mjg5PC90aXRsZT4mI3hhOwkJCSYjeGE7CQkJCTxwYXRoIGlkPSJwYXRoNDY2NTkiIGlua3NjYXBlOmNvbm5lY3Rvci1jdXJ2YXR1cmU9IjAiIHN0eWxlPSJmaWxsOm5vbmU7c3Ryb2tlOiM1NTZBOEE7c3Ryb2tlLXdpZHRoOjEuNTtzdHJva2UtbWl0ZXJsaW1pdDozOyIgZD0iICAgICBNMCw0OS4xOWgxOCIvPiYjeGE7CQk8L2c+JiN4YTsJCTxnIGlkPSJzaGFwZTQ0MTAtMjMiIHRyYW5zZm9ybT0icm90YXRlKDkwLDI5Ljg5ODc1LDUxLjU0Mzc1KSI+JiN4YTsJCQk8dGl0bGUgaWQ9InRpdGxlNDY2NjIiPmxpbmU0MjkxPC90aXRsZT4mI3hhOwkJCSYjeGE7CQkJCTxwYXRoIGlkPSJwYXRoNDY2NjQiIGlua3NjYXBlOmNvbm5lY3Rvci1jdXJ2YXR1cmU9IjAiIHN0eWxlPSJmaWxsOm5vbmU7c3Ryb2tlOiM1NTZBOEE7c3Ryb2tlLXdpZHRoOjEuNTtzdHJva2UtbWl0ZXJsaW1pdDozOyIgZD0iICAgICBNMCw0OS4xOWgxOCIvPiYjeGE7CQk8L2c+JiN4YTsJPC9nPiYjeGE7PC9nPiYjeGE7PC9zdmc+;" vertex="1" parent="1">
          <mxGeometry x="65.21000000000001" y="-70" width="44.79" height="50" as="geometry" />
        </mxCell>
        <mxCell id="P7VSxlDMBpMuydGatJfI-74" style="edgeStyle=orthogonalEdgeStyle;rounded=0;orthogonalLoop=1;jettySize=auto;html=1;entryX=0.5;entryY=0;entryDx=0;entryDy=0;" edge="1" parent="1" source="P7VSxlDMBpMuydGatJfI-62" target="P7VSxlDMBpMuydGatJfI-49">
          <mxGeometry relative="1" as="geometry" />
        </mxCell>
        <mxCell id="P7VSxlDMBpMuydGatJfI-62" value="" style="shape=image;verticalLabelPosition=bottom;labelBackgroundColor=#ffffff;verticalAlign=top;aspect=fixed;imageAspect=0;image=data:image/svg+xml,PHN2ZyB4bWxuczpjYz0iaHR0cDovL2NyZWF0aXZlY29tbW9ucy5vcmcvbnMjIiB4bWxuczpkYz0iaHR0cDovL3B1cmwub3JnL2RjL2VsZW1lbnRzLzEuMS8iIHhtbG5zOmlua3NjYXBlPSJodHRwOi8vd3d3Lmlua3NjYXBlLm9yZy9uYW1lc3BhY2VzL2lua3NjYXBlIiB4bWxuczpyZGY9Imh0dHA6Ly93d3cudzMub3JnLzE5OTkvMDIvMjItcmRmLXN5bnRheC1ucyMiIHhtbG5zOnNvZGlwb2RpPSJodHRwOi8vc29kaXBvZGkuc291cmNlZm9yZ2UubmV0L0RURC9zb2RpcG9kaS0wLmR0ZCIgeG1sbnM6c3ZnPSJodHRwOi8vd3d3LnczLm9yZy8yMDAwL3N2ZyIgeG1sbnM9Imh0dHA6Ly93d3cudzMub3JnLzIwMDAvc3ZnIiB4bWxuczp4bGluaz0iaHR0cDovL3d3dy53My5vcmcvMTk5OS94bGluayIgdmVyc2lvbj0iMS4xIiBpZD0ic3ZnNDY2NzAiIGlua3NjYXBlOnZlcnNpb249IjAuOTIuMyAoMjQwNTU0NiwgMjAxOC0wMy0xMSkiIHNvZGlwb2RpOmRvY25hbWU9ImRhdGFiYXNlX2FuZF90YWJsZS5zdmciIHg9IjBweCIgeT0iMHB4IiB2aWV3Qm94PSIwIDAgNDIuNzUgNDcuNjkiIHN0eWxlPSJlbmFibGUtYmFja2dyb3VuZDpuZXcgMCAwIDQyLjc1IDQ3LjY5OyIgeG1sOnNwYWNlPSJwcmVzZXJ2ZSI+JiN4YTs8c29kaXBvZGk6bmFtZWR2aWV3IGJvcmRlcmNvbG9yPSIjNjY2NjY2IiBib3JkZXJvcGFjaXR5PSIxIiBmaXQtbWFyZ2luLWJvdHRvbT0iMCIgZml0LW1hcmdpbi1sZWZ0PSIwIiBmaXQtbWFyZ2luLXJpZ2h0PSIwIiBmaXQtbWFyZ2luLXRvcD0iMCIgZ3JpZHRvbGVyYW5jZT0iMTAiIGd1aWRldG9sZXJhbmNlPSIxMCIgaWQ9Im5hbWVkdmlldzQ2NjcyIiBpbmtzY2FwZTpjdXJyZW50LWxheWVyPSJzdmc0NjY3MCIgaW5rc2NhcGU6Y3g9IjIyLjI4MTUzNCIgaW5rc2NhcGU6Y3k9IjE5Ljc5OTQwOSIgaW5rc2NhcGU6cGFnZW9wYWNpdHk9IjAiIGlua3NjYXBlOnBhZ2VzaGFkb3c9IjIiIGlua3NjYXBlOndpbmRvdy1oZWlnaHQ9IjEwMTciIGlua3NjYXBlOndpbmRvdy1tYXhpbWl6ZWQ9IjEiIGlua3NjYXBlOndpbmRvdy13aWR0aD0iMTkyMCIgaW5rc2NhcGU6d2luZG93LXg9Ii04IiBpbmtzY2FwZTp3aW5kb3cteT0iLTgiIGlua3NjYXBlOnpvb209IjYuNjA5MjQwNSIgb2JqZWN0dG9sZXJhbmNlPSIxMCIgcGFnZWNvbG9yPSIjZmZmZmZmIiBzaG93Z3JpZD0iZmFsc2UiPiYjeGE7CTwvc29kaXBvZGk6bmFtZWR2aWV3PiYjeGE7PGcgaWQ9Imc0NjY2OCIgdHJhbnNmb3JtPSJ0cmFuc2xhdGUoLTAuNzUsLTAuNzQ1KSI+JiN4YTsJPHRpdGxlIGlkPSJ0aXRsZTQ2NjE0Ij5QYWdlLTE8L3RpdGxlPiYjeGE7CTxnIGlkPSJncm91cDQ0MDEtMSIgdHJhbnNmb3JtPSJ0cmFuc2xhdGUoMS41LC0xLjUpIj4mI3hhOwkJPHRpdGxlIGlkPSJ0aXRsZTQ2NjE2Ij5EYXRhYmFzZSBhbmQgVGFibGU8L3RpdGxlPiYjeGE7CQk8ZyBpZD0ic2hhcGU0NDAyLTIiPiYjeGE7CQkJPHRpdGxlIGlkPSJ0aXRsZTQ2NjE4Ij5wYXRoNDI3MzwvdGl0bGU+JiN4YTsJCQk8cGF0aCBpZD0icGF0aDQ2NjIwIiBpbmtzY2FwZTpjb25uZWN0b3ItY3VydmF0dXJlPSIwIiBzdHlsZT0iZmlsbDojRkZGRkZGOyIgZD0iTTMxLjc5LDlMMjEuNDQsOS4wOUwwLDkuMjd2MzMuMzcgICAgIGMwLDMuNDIsNy41LDYuMzcsMTcuMjUsNi41NWgwLjM3YzEuMzIsMCwyLjYtMC4wNywzLjgyLTAuMTljMy41Ny0wLjIyLDcuMDgtMS4wNywxMC4zNS0yLjUzYzIuMTktMS4xLDMuNDYtMi40NCwzLjQ2LTMuODNWOC45NyAgICAgTDMxLjc5LDl6Ii8+JiN4YTsJCTwvZz4mI3hhOwkJPGcgaWQ9InNoYXBlNDQwMy00IiB0cmFuc2Zvcm09InRyYW5zbGF0ZSgyMS4xNSwtMC4yMSkiPiYjeGE7CQkJPHRpdGxlIGlkPSJ0aXRsZTQ2NjIzIj5wYXRoNDI3NTwvdGl0bGU+JiN4YTsJCQk8cGF0aCBpZD0icGF0aDQ2NjI1IiBpbmtzY2FwZTpjb25uZWN0b3ItY3VydmF0dXJlPSIwIiBzdHlsZT0iZmlsbDojRTVFNUU1OyIgZD0iTTEwLjM1LDkuMjF2MzcuNDUgICAgIEM3LjA4LDQ4LjEyLDMuNTcsNDguOTcsMCw0OS4xOVY5LjNMMTAuMzUsOS4yMXoiLz4mI3hhOwkJPC9nPiYjeGE7CQk8ZyBpZD0ic2hhcGU0NDA0LTYiPiYjeGE7CQkJPHRpdGxlIGlkPSJ0aXRsZTQ2NjI4Ij5wYXRoNDI3NzwvdGl0bGU+JiN4YTsJCQk8cGF0aCBpZD0icGF0aDQ2NjMwIiBpbmtzY2FwZTpjb25uZWN0b3ItY3VydmF0dXJlPSIwIiBzdHlsZT0iZmlsbDpub25lOyIgZD0iTTAsOS4yN3YzMy4zN2MwLDMuNDIsNy40Niw2LjM3LDE3LjI1LDYuNTVoMC4zNyAgICAgYzkuOTctMC4xMywxNy42My0zLjEsMTcuNjMtNi41NVY4Ljk3TDAsOS4yN3oiLz4mI3hhOwkJCSYjeGE7CQkJCTxwYXRoIGlkPSJwYXRoNDY2MzIiIGlua3NjYXBlOmNvbm5lY3Rvci1jdXJ2YXR1cmU9IjAiIHN0eWxlPSJmaWxsOm5vbmU7c3Ryb2tlOiM1NTZBOEE7c3Ryb2tlLXdpZHRoOjEuNTtzdHJva2UtbWl0ZXJsaW1pdDozOyIgZD0iICAgICBNMCw5LjI3djMzLjM3YzAsMy40Miw3LjQ2LDYuMzcsMTcuMjUsNi41NWgwLjM3YzkuOTctMC4xMywxNy42My0zLjEsMTcuNjMtNi41NVY4Ljk3Ii8+JiN4YTsJCTwvZz4mI3hhOwkJPGcgaWQ9InNoYXBlNDQwNS05IiB0cmFuc2Zvcm09InRyYW5zbGF0ZSgwLjA0NSwtMzMuNDY1KSI+JiN4YTsJCQk8dGl0bGUgaWQ9InRpdGxlNDY2MzUiPnBhdGg0Mjc5PC90aXRsZT4mI3hhOwkJCTxwYXRoIGlkPSJwYXRoNDY2MzciIGlua3NjYXBlOmNvbm5lY3Rvci1jdXJ2YXR1cmU9IjAiIHN0eWxlPSJmaWxsOiNCQUQ4MEE7IiBkPSJNMzUuMjUsNDIuODJjMCwzLjUyLTcuODksNi4zNy0xNy42Myw2LjM3ICAgICBDNy44OSw0OS4xOSwwLDQ2LjM0LDAsNDIuODJjMC0zLjUxLDguMTItNi4zNiwxNy44Ni02LjM2QzI3LjU5LDM2LjQ2LDM1LjI1LDM5LjMxLDM1LjI1LDQyLjgyTDM1LjI1LDQyLjgyeiIvPiYjeGE7CQkJJiN4YTsJCQkJPHBhdGggaWQ9InBhdGg0NjYzOSIgaW5rc2NhcGU6Y29ubmVjdG9yLWN1cnZhdHVyZT0iMCIgc3R5bGU9ImZpbGw6bm9uZTtzdHJva2U6IzU1NkE4QTtzdHJva2Utd2lkdGg6MS41O3N0cm9rZS1taXRlcmxpbWl0OjM7IiBkPSIgICAgIE0zNS4yNSw0Mi44MmMwLDMuNTItNy44OSw2LjM3LTE3LjYzLDYuMzdDNy44OSw0OS4xOSwwLDQ2LjM0LDAsNDIuODJjMC0zLjUxLDguMTItNi4zNiwxNy44Ni02LjM2ICAgICBDMjcuNTksMzYuNDYsMzUuMjUsMzkuMzEsMzUuMjUsNDIuODIiLz4mI3hhOwkJPC9nPiYjeGE7CQk8ZyBpZD0ic2hhcGU0NDA2LTEyIiB0cmFuc2Zvcm09InRyYW5zbGF0ZSgxNC4yNSwtOS41NDc1KSI+JiN4YTsJCQk8dGl0bGUgaWQ9InRpdGxlNDY2NDIiPnJlY3Q0MjgzPC90aXRsZT4mI3hhOwkJCSYjeGE7CQkJCTxyZWN0IGlkPSJyZWN0NDY2NDQiIHk9IjMxLjE5IiBzdHlsZT0iZmlsbDojRkZGRkZGO3N0cm9rZTojNTU2QThBO3N0cm9rZS13aWR0aDoxLjU7c3Ryb2tlLW1pdGVybGltaXQ6MzsiIHdpZHRoPSIyNyIgaGVpZ2h0PSIxOCIvPiYjeGE7CQk8L2c+JiN4YTsJCTxnIGlkPSJzaGFwZTQ0MDctMTQiIHRyYW5zZm9ybT0idHJhbnNsYXRlKDE0LjI1LC0yMS41NDc1KSI+JiN4YTsJCQk8dGl0bGUgaWQ9InRpdGxlNDY2NDciPmxpbmU0Mjg1PC90aXRsZT4mI3hhOwkJCSYjeGE7CQkJCTxwYXRoIGlkPSJwYXRoNDY2NDkiIGlua3NjYXBlOmNvbm5lY3Rvci1jdXJ2YXR1cmU9IjAiIHN0eWxlPSJmaWxsOm5vbmU7c3Ryb2tlOiM1NTZBOEE7c3Ryb2tlLXdpZHRoOjEuNTtzdHJva2UtbWl0ZXJsaW1pdDozOyIgZD0iICAgICBNMCw0OS4xOWgyNy43NSIvPiYjeGE7CQk8L2c+JiN4YTsJCTxnIGlkPSJzaGFwZTQ0MDgtMTciIHRyYW5zZm9ybT0idHJhbnNsYXRlKDE0LjI1LC0xNS41NDc1KSI+JiN4YTsJCQk8dGl0bGUgaWQ9InRpdGxlNDY2NTIiPmxpbmU0Mjg3PC90aXRsZT4mI3hhOwkJCSYjeGE7CQkJCTxwYXRoIGlkPSJwYXRoNDY2NTQiIGlua3NjYXBlOmNvbm5lY3Rvci1jdXJ2YXR1cmU9IjAiIHN0eWxlPSJmaWxsOm5vbmU7c3Ryb2tlOiM1NTZBOEE7c3Ryb2tlLXdpZHRoOjEuNTtzdHJva2UtbWl0ZXJsaW1pdDozOyIgZD0iICAgICBNMCw0OS4xOWgyNy43NSIvPiYjeGE7CQk8L2c+JiN4YTsJCTxnIGlkPSJzaGFwZTQ0MDktMjAiIHRyYW5zZm9ybT0icm90YXRlKDkwLDI1LjM5ODc1LDQ3LjA0Mzc1KSI+JiN4YTsJCQk8dGl0bGUgaWQ9InRpdGxlNDY2NTciPmxpbmU0Mjg5PC90aXRsZT4mI3hhOwkJCSYjeGE7CQkJCTxwYXRoIGlkPSJwYXRoNDY2NTkiIGlua3NjYXBlOmNvbm5lY3Rvci1jdXJ2YXR1cmU9IjAiIHN0eWxlPSJmaWxsOm5vbmU7c3Ryb2tlOiM1NTZBOEE7c3Ryb2tlLXdpZHRoOjEuNTtzdHJva2UtbWl0ZXJsaW1pdDozOyIgZD0iICAgICBNMCw0OS4xOWgxOCIvPiYjeGE7CQk8L2c+JiN4YTsJCTxnIGlkPSJzaGFwZTQ0MTAtMjMiIHRyYW5zZm9ybT0icm90YXRlKDkwLDI5Ljg5ODc1LDUxLjU0Mzc1KSI+JiN4YTsJCQk8dGl0bGUgaWQ9InRpdGxlNDY2NjIiPmxpbmU0MjkxPC90aXRsZT4mI3hhOwkJCSYjeGE7CQkJCTxwYXRoIGlkPSJwYXRoNDY2NjQiIGlua3NjYXBlOmNvbm5lY3Rvci1jdXJ2YXR1cmU9IjAiIHN0eWxlPSJmaWxsOm5vbmU7c3Ryb2tlOiM1NTZBOEE7c3Ryb2tlLXdpZHRoOjEuNTtzdHJva2UtbWl0ZXJsaW1pdDozOyIgZD0iICAgICBNMCw0OS4xOWgxOCIvPiYjeGE7CQk8L2c+JiN4YTsJPC9nPiYjeGE7PC9nPiYjeGE7PC9zdmc+;" vertex="1" parent="1">
          <mxGeometry x="239.61" y="-50" width="44.79" height="50" as="geometry" />
        </mxCell>
        <mxCell id="P7VSxlDMBpMuydGatJfI-70" style="edgeStyle=orthogonalEdgeStyle;rounded=0;orthogonalLoop=1;jettySize=auto;html=1;entryX=0;entryY=0.5;entryDx=0;entryDy=0;" edge="1" parent="1" source="P7VSxlDMBpMuydGatJfI-63" target="P7VSxlDMBpMuydGatJfI-62">
          <mxGeometry relative="1" as="geometry" />
        </mxCell>
        <mxCell id="P7VSxlDMBpMuydGatJfI-63" value="" style="sketch=0;html=1;aspect=fixed;strokeColor=none;shadow=0;fillColor=#3B8DF1;verticalAlign=top;labelPosition=center;verticalLabelPosition=bottom;shape=mxgraph.gcp2.gear_chain" vertex="1" parent="1">
          <mxGeometry x="100" y="-20" width="50" height="50" as="geometry" />
        </mxCell>
        <mxCell id="P7VSxlDMBpMuydGatJfI-65" style="edgeStyle=orthogonalEdgeStyle;rounded=0;orthogonalLoop=1;jettySize=auto;html=1;entryX=0.017;entryY=0.55;entryDx=0;entryDy=0;entryPerimeter=0;" edge="1" parent="1" source="P7VSxlDMBpMuydGatJfI-57" target="P7VSxlDMBpMuydGatJfI-63">
          <mxGeometry relative="1" as="geometry" />
        </mxCell>
        <mxCell id="P7VSxlDMBpMuydGatJfI-69" style="edgeStyle=orthogonalEdgeStyle;rounded=0;orthogonalLoop=1;jettySize=auto;html=1;entryX=0.283;entryY=0.833;entryDx=0;entryDy=0;entryPerimeter=0;" edge="1" parent="1" source="P7VSxlDMBpMuydGatJfI-59" target="P7VSxlDMBpMuydGatJfI-63">
          <mxGeometry relative="1" as="geometry" />
        </mxCell>
        <mxCell id="P7VSxlDMBpMuydGatJfI-82" value="FEATURE&lt;br&gt;ENGINEERING" style="text;strokeColor=none;align=center;fillColor=none;html=1;verticalAlign=middle;whiteSpace=wrap;rounded=0;" vertex="1" parent="1">
          <mxGeometry x="135.82999999999998" y="10" width="60" height="30" as="geometry" />
        </mxCell>
        <mxCell id="P7VSxlDMBpMuydGatJfI-86" value="HOT SPOTS &lt;br&gt;FOR 1ST DEGREE &lt;br&gt;CRIMES" style="sketch=0;html=1;aspect=fixed;strokeColor=none;shadow=0;fillColor=#3B8DF1;verticalAlign=top;labelPosition=center;verticalLabelPosition=bottom;shape=mxgraph.gcp2.maps_api" vertex="1" parent="1">
          <mxGeometry x="102.66" y="380" width="30.5" height="50" as="geometry" />
        </mxCell>
        <mxCell id="P7VSxlDMBpMuydGatJfI-89" value="" style="edgeStyle=orthogonalEdgeStyle;rounded=0;orthogonalLoop=1;jettySize=auto;html=1;" edge="1" parent="1">
          <mxGeometry relative="1" as="geometry">
            <mxPoint x="366.5" y="369" as="sourcePoint" />
            <mxPoint x="367.5" y="419" as="targetPoint" />
            <Array as="points">
              <mxPoint x="366.5" y="389" />
              <mxPoint x="367.5" y="389" />
            </Array>
          </mxGeometry>
        </mxCell>
        <mxCell id="P7VSxlDMBpMuydGatJfI-98" value="RESULTS/ ANALYSIS" style="edgeLabel;html=1;align=center;verticalAlign=middle;resizable=0;points=[];" vertex="1" connectable="0" parent="P7VSxlDMBpMuydGatJfI-89">
          <mxGeometry x="-0.1765" y="4" relative="1" as="geometry">
            <mxPoint y="-1" as="offset" />
          </mxGeometry>
        </mxCell>
        <mxCell id="P7VSxlDMBpMuydGatJfI-96" value="" style="image;html=1;image=img/lib/clip_art/finance/Graph_128x128.png" vertex="1" parent="1">
          <mxGeometry x="310" y="410" width="50" height="50" as="geometry" />
        </mxCell>
        <mxCell id="P7VSxlDMBpMuydGatJfI-97" value="" style="verticalLabelPosition=bottom;shadow=0;dashed=0;align=center;html=1;verticalAlign=top;strokeWidth=1;shape=mxgraph.mockup.graphics.lineChart;strokeColor=none;strokeColor2=#666666;strokeColor3=#008cff;strokeColor4=#dddddd;" vertex="1" parent="1">
          <mxGeometry x="380" y="410" width="54" height="50" as="geometry" />
        </mxCell>
        <mxCell id="P7VSxlDMBpMuydGatJfI-99" value="SOCIO ECONOMIC FACTORS FOR CRIME" style="text;strokeColor=none;align=center;fillColor=none;html=1;verticalAlign=middle;whiteSpace=wrap;rounded=0;" vertex="1" parent="1">
          <mxGeometry x="307" y="470" width="133" height="30" as="geometry" />
        </mxCell>
        <mxCell id="P7VSxlDMBpMuydGatJfI-100" value="HYBRID CRIME ANALYSIS" style="text;strokeColor=none;align=center;fillColor=none;html=1;verticalAlign=middle;whiteSpace=wrap;rounded=0;" vertex="1" parent="1">
          <mxGeometry x="357" y="-1" width="133" height="30" as="geometry" />
        </mxCell>
        <mxCell id="P7VSxlDMBpMuydGatJfI-101" value="" style="whiteSpace=wrap;html=1;aspect=fixed;fillColor=#DEDEDE;" vertex="1" parent="1">
          <mxGeometry x="530" y="-20" width="510" height="510" as="geometry" />
        </mxCell>
        <mxCell id="P7VSxlDMBpMuydGatJfI-102" value="" style="verticalLabelPosition=bottom;shadow=0;dashed=0;align=center;html=1;verticalAlign=top;strokeWidth=1;shape=mxgraph.mockup.graphics.barChart;strokeColor=none;strokeColor2=none;strokeColor3=#666666;fillColor2=#008cff;fillColor3=#dddddd;" vertex="1" parent="1">
          <mxGeometry x="901" width="80" height="61" as="geometry" />
        </mxCell>
        <mxCell id="P7VSxlDMBpMuydGatJfI-104" value="" style="verticalLabelPosition=bottom;shadow=0;dashed=0;align=center;html=1;verticalAlign=top;strokeWidth=1;shape=mxgraph.mockup.graphics.bubbleChart;strokeColor=none;strokeColor2=none;strokeColor3=#666666;fillColor2=#008cff;fillColor3=#dddddd;" vertex="1" parent="1">
          <mxGeometry x="913.55" y="257" width="90" height="60" as="geometry" />
        </mxCell>
        <mxCell id="P7VSxlDMBpMuydGatJfI-106" value="" style="image;sketch=0;aspect=fixed;html=1;points=[];align=center;fontSize=12;image=img/lib/mscae/Chart.svg;" vertex="1" parent="1">
          <mxGeometry x="913.55" y="115.5" width="63.55" height="61" as="geometry" />
        </mxCell>
        <mxCell id="P7VSxlDMBpMuydGatJfI-107" value="" style="sketch=0;html=1;aspect=fixed;strokeColor=none;shadow=0;fillColor=#3B8DF1;verticalAlign=top;labelPosition=center;verticalLabelPosition=bottom;shape=mxgraph.gcp2.maps_api" vertex="1" parent="1">
          <mxGeometry x="938.3000000000001" y="400" width="42.7" height="70" as="geometry" />
        </mxCell>
        <mxCell id="P7VSxlDMBpMuydGatJfI-126" style="edgeStyle=orthogonalEdgeStyle;rounded=0;orthogonalLoop=1;jettySize=auto;html=1;" edge="1" parent="1" source="P7VSxlDMBpMuydGatJfI-109" target="P7VSxlDMBpMuydGatJfI-125">
          <mxGeometry relative="1" as="geometry" />
        </mxCell>
        <mxCell id="P7VSxlDMBpMuydGatJfI-109" value="" style="image;aspect=fixed;perimeter=ellipsePerimeter;html=1;align=center;shadow=0;dashed=0;fontColor=#4277BB;labelBackgroundColor=default;fontSize=12;spacingTop=3;image=img/lib/ibm/blockchain/consensus.svg;" vertex="1" parent="1">
          <mxGeometry x="551.55" y="18" width="51" height="51" as="geometry" />
        </mxCell>
        <mxCell id="P7VSxlDMBpMuydGatJfI-127" style="edgeStyle=orthogonalEdgeStyle;rounded=0;orthogonalLoop=1;jettySize=auto;html=1;entryX=0;entryY=0.5;entryDx=0;entryDy=0;" edge="1" parent="1" source="P7VSxlDMBpMuydGatJfI-110" target="P7VSxlDMBpMuydGatJfI-125">
          <mxGeometry relative="1" as="geometry" />
        </mxCell>
        <mxCell id="P7VSxlDMBpMuydGatJfI-110" value="" style="sketch=0;pointerEvents=1;shadow=0;dashed=0;html=1;strokeColor=none;fillColor=#505050;labelPosition=center;verticalLabelPosition=bottom;verticalAlign=top;outlineConnect=0;align=center;shape=mxgraph.office.users.um_enabled_user;" vertex="1" parent="1">
          <mxGeometry x="563.0899999999999" y="106" width="34.45" height="40" as="geometry" />
        </mxCell>
        <mxCell id="P7VSxlDMBpMuydGatJfI-112" value="" style="image;aspect=fixed;html=1;points=[];align=center;fontSize=12;image=img/lib/azure2/management_governance/Education.svg;" vertex="1" parent="1">
          <mxGeometry x="545.0500000000001" y="189" width="45.74" height="35.5" as="geometry" />
        </mxCell>
        <mxCell id="P7VSxlDMBpMuydGatJfI-129" style="edgeStyle=orthogonalEdgeStyle;rounded=0;orthogonalLoop=1;jettySize=auto;html=1;" edge="1" parent="1" source="P7VSxlDMBpMuydGatJfI-113" target="P7VSxlDMBpMuydGatJfI-125">
          <mxGeometry relative="1" as="geometry" />
        </mxCell>
        <mxCell id="P7VSxlDMBpMuydGatJfI-113" value="" style="shape=image;verticalLabelPosition=bottom;labelBackgroundColor=#ffffff;verticalAlign=top;aspect=fixed;imageAspect=0;image=data:image/svg+xml,PHN2ZyB4bWxuczpjYz0iaHR0cDovL2NyZWF0aXZlY29tbW9ucy5vcmcvbnMjIiB4bWxuczpkYz0iaHR0cDovL3B1cmwub3JnL2RjL2VsZW1lbnRzLzEuMS8iIHhtbG5zOmlua3NjYXBlPSJodHRwOi8vd3d3Lmlua3NjYXBlLm9yZy9uYW1lc3BhY2VzL2lua3NjYXBlIiB4bWxuczpyZGY9Imh0dHA6Ly93d3cudzMub3JnLzE5OTkvMDIvMjItcmRmLXN5bnRheC1ucyMiIHhtbG5zOnNvZGlwb2RpPSJodHRwOi8vc29kaXBvZGkuc291cmNlZm9yZ2UubmV0L0RURC9zb2RpcG9kaS0wLmR0ZCIgeG1sbnM6c3ZnPSJodHRwOi8vd3d3LnczLm9yZy8yMDAwL3N2ZyIgeG1sbnM9Imh0dHA6Ly93d3cudzMub3JnLzIwMDAvc3ZnIiB4bWxuczp4bGluaz0iaHR0cDovL3d3dy53My5vcmcvMTk5OS94bGluayIgdmVyc2lvbj0iMS4xIiBpZD0ic3ZnNDE3MjYiIGlua3NjYXBlOnZlcnNpb249IjAuOTIuMyAoMjQwNTU0NiwgMjAxOC0wMy0xMSkiIHNvZGlwb2RpOmRvY25hbWU9ImJpenRhbGtfc2VydmVyX29wZW5fc291cmNlX2NvbW11bml0eV9naXRodWJfcmVwb3NpdG9yeS5zdmciIHg9IjBweCIgeT0iMHB4IiB2aWV3Qm94PSIwIDAgMTg2LjA0IDEzOS42NiIgc3R5bGU9ImVuYWJsZS1iYWNrZ3JvdW5kOm5ldyAwIDAgMTg2LjA0IDEzOS42NjsiIHhtbDpzcGFjZT0icHJlc2VydmUiPiYjeGE7PHNvZGlwb2RpOm5hbWVkdmlldyBib3JkZXJjb2xvcj0iIzY2NjY2NiIgYm9yZGVyb3BhY2l0eT0iMSIgZml0LW1hcmdpbi1ib3R0b209IjAiIGZpdC1tYXJnaW4tbGVmdD0iMCIgZml0LW1hcmdpbi1yaWdodD0iMCIgZml0LW1hcmdpbi10b3A9IjAiIGdyaWR0b2xlcmFuY2U9IjEwIiBndWlkZXRvbGVyYW5jZT0iMTAiIGlkPSJuYW1lZHZpZXc0MTcyOCIgaW5rc2NhcGU6Y3VycmVudC1sYXllcj0ic3ZnNDE3MjYiIGlua3NjYXBlOmN4PSIxMzguNDI4NTEiIGlua3NjYXBlOmN5PSI3Ni42MzQ1NjUiIGlua3NjYXBlOnBhZ2VvcGFjaXR5PSIwIiBpbmtzY2FwZTpwYWdlc2hhZG93PSIyIiBpbmtzY2FwZTp3aW5kb3ctaGVpZ2h0PSIxMDE3IiBpbmtzY2FwZTp3aW5kb3ctbWF4aW1pemVkPSIxIiBpbmtzY2FwZTp3aW5kb3ctd2lkdGg9IjE5MjAiIGlua3NjYXBlOndpbmRvdy14PSItOCIgaW5rc2NhcGU6d2luZG93LXk9Ii04IiBpbmtzY2FwZTp6b29tPSIyLjI3NTI0MDgiIG9iamVjdHRvbGVyYW5jZT0iMTAiIHBhZ2Vjb2xvcj0iI2ZmZmZmZiIgc2hvd2dyaWQ9ImZhbHNlIj4mI3hhOwk8L3NvZGlwb2RpOm5hbWVkdmlldz4mI3hhOzxnIGlkPSJnNDE3MjQiIHRyYW5zZm9ybT0idHJhbnNsYXRlKC0wLjgxMzE5NTg3LC0wLjc1MjU3KSI+JiN4YTsJPHRpdGxlIGlkPSJ0aXRsZTQxMzU4Ij5QYWdlLTE8L3RpdGxlPiYjeGE7CTxnIGlkPSJncm91cDUxMy0xIj4mI3hhOwkJPHRpdGxlIGlkPSJ0aXRsZTQxMzYwIj5CaXpUYWxrIFNlcnZlciBPcGVuIFNvdXJjZSBDb21tdW5pdHkgR2l0SHViIFJlcG9zaXRvcnk8L3RpdGxlPiYjeGE7CQk8ZyBpZD0iZ3JvdXA1MTQtMiIgdHJhbnNmb3JtPSJ0cmFuc2xhdGUoMTY2LjU1OCwtMjIuMjI2NykiPiYjeGE7CQkJPHRpdGxlIGlkPSJ0aXRsZTQxMzYyIj5nMzE4MzwvdGl0bGU+JiN4YTsJCQk8ZyBpZD0ic2hhcGU1MTUtMyIgdHJhbnNmb3JtPSJtYXRyaXgoLTAuNzUxNjkyNDksLTAuNjU5NTEzNzYsLTAuNjU5NTEzNzYsMC43NTE2OTI0OSwxMDIuNjgxLDcuMjcwMzMpIj4mI3hhOwkJCQk8dGl0bGUgaWQ9InRpdGxlNDEzNjQiPnBhdGgzNjI3LTktMC0xLTM8L3RpdGxlPiYjeGE7CQkJCTxwYXRoIGlkPSJwYXRoNDEzNjYiIGlua3NjYXBlOmNvbm5lY3Rvci1jdXJ2YXR1cmU9IjAiIHN0eWxlPSJmaWxsOiNGMkE0Mzg7IiBkPSJNNy40MywxMzkuMDhjMCwyLjExLTEuNjcsMy44Mi0zLjcyLDMuODIgICAgICBTMCwxNDEuMTksMCwxMzkuMDhjMC0yLjExLDEuNjYtMy44MywzLjcxLTMuODNTNy40MywxMzYuOTcsNy40MywxMzkuMDh6Ii8+JiN4YTsJCQk8L2c+JiN4YTsJCQk8ZyBpZD0ic2hhcGU1MTYtNSIgdHJhbnNmb3JtPSJ0cmFuc2xhdGUoMCwtMTEuNTMwNykiPiYjeGE7CQkJCTx0aXRsZSBpZD0idGl0bGU0MTM2OSI+cGF0aDM2MjktNi00LTY3LTc8L3RpdGxlPiYjeGE7CQkJCTxwYXRoIGlkPSJwYXRoNDEzNzEiIGlua3NjYXBlOmNvbm5lY3Rvci1jdXJ2YXR1cmU9IjAiIHN0eWxlPSJmaWxsOiNGMkE0Mzg7IiBkPSJNOC43LDEyOS44MWMtMi42MS0xLjcxLTYuMzcsMC40LTguNyw0Ljc0ICAgICAgbDAuOTcsMC42M2MxLjg5LTMuNCw0Ljg3LTUuMDMsNi45Ni0zLjY2YzIuMDgsMS4zNiwxLjQ0LDcsMC4wOCwxMC43NGwwLjk3LDAuNjRDMTAuNzcsMTM4LjIsMTEuMzIsMTMxLjUzLDguNywxMjkuODEgICAgICBMOC43LDEyOS44MXoiLz4mI3hhOwkJCTwvZz4mI3hhOwkJCTxnIGlkPSJzaGFwZTUxNy03IiB0cmFuc2Zvcm09InRyYW5zbGF0ZSg2LjMyOTUzKSI+JiN4YTsJCQkJPHRpdGxlIGlkPSJ0aXRsZTQxMzc0Ij5wYXRoMzYzMS0yLTUtNS05PC90aXRsZT4mI3hhOwkJCQk8cGF0aCBpZD0icGF0aDQxMzc2IiBpbmtzY2FwZTpjb25uZWN0b3ItY3VydmF0dXJlPSIwIiBzdHlsZT0iZmlsbDojRjJBNDM4OyIgZD0iTTMuNDgsMTE2LjM5YzEuODUsMS40MywzLjI2LDE1LjkxLDMuMjMsMjEuMjEgICAgICBjLTAuMDMsNS4zLTAuNDEsMi41OS0wLjgsMC4zN2MtMC4zOC0yLjIyLTEuMDktOC4zLTIuNTEtOS40Yy0xLjQyLTEuMDktMi40NCwzLjU2LTIuODUsNS4xOGMtMC40LDEuNjEtMC41NSwzLjk5LTAuNTItMS4zMSAgICAgIFMxLjY0LDExNC45NywzLjQ4LDExNi4zOXoiLz4mI3hhOwkJCTwvZz4mI3hhOwkJPC9nPiYjeGE7CQk8ZyBpZD0iZ3JvdXA1MTgtOSIgdHJhbnNmb3JtPSJ0cmFuc2xhdGUoMTc0LjI4MSwtNi40ODcxNikiPiYjeGE7CQkJPHRpdGxlIGlkPSJ0aXRsZTQxMzgwIj5nODQxMS0xPC90aXRsZT4mI3hhOwkJCTxnIGlkPSJzaGFwZTUxOS0xMCIgdHJhbnNmb3JtPSJtYXRyaXgoLTAuNjg3NTQ3NywtMC43MjYxMzkyMiwtMC43MjYxMzkyMiwwLjY4NzU0NzcsMTEyLjA3MiwxNS45NjcyKSI+JiN4YTsJCQkJPHRpdGxlIGlkPSJ0aXRsZTQxMzgyIj5wYXRoMzYyNy05LTAtMS0zLTM8L3RpdGxlPiYjeGE7CQkJCTxwYXRoIGlkPSJwYXRoNDEzODQiIGlua3NjYXBlOmNvbm5lY3Rvci1jdXJ2YXR1cmU9IjAiIHN0eWxlPSJmaWxsOiM2QkI0Mjc7ZmlsbC1vcGFjaXR5OjAuODsiIGQ9Ik02Ljc1LDEzOS40ICAgICAgYzAsMS45My0xLjUxLDMuNS0zLjM4LDMuNWMtMS44NiwwLTMuMzctMS41Ny0zLjM3LTMuNXMxLjUxLTMuNDksMy4zNy0zLjQ5QzUuMjQsMTM1LjkxLDYuNzUsMTM3LjQ3LDYuNzUsMTM5LjR6Ii8+JiN4YTsJCQk8L2c+JiN4YTsJCQk8ZyBpZD0ic2hhcGU1MjAtMTIiIHRyYW5zZm9ybT0idHJhbnNsYXRlKDAsLTE1LjAxNjUpIj4mI3hhOwkJCQk8dGl0bGUgaWQ9InRpdGxlNDEzODciPnBhdGgzNjI5LTYtNC02Ny03LTE8L3RpdGxlPiYjeGE7CQkJCTxwYXRoIGlkPSJwYXRoNDEzODkiIGlua3NjYXBlOmNvbm5lY3Rvci1jdXJ2YXR1cmU9IjAiIHN0eWxlPSJmaWxsOiM2QkI0Mjc7ZmlsbC1vcGFjaXR5OjAuODsiIGQ9Ik05Ljg2LDEzMy4xMiAgICAgIGMtMC44OC0zLjE5LTUuMTgtNC40Mi05Ljg2LTIuOTdsMC4zMywxLjE5YzMuNzEtMS4wOSw3LjA5LTAuMDgsNy44LDIuNDZjMC43LDIuNTQtMy41Myw2LjE4LTcuMDcsNy45MmwwLjMzLDEuMTggICAgICBDNS44OSwxNDAuNzksMTAuNzUsMTM2LjMxLDkuODYsMTMzLjEyeiIvPiYjeGE7CQkJPC9nPiYjeGE7CQkJPGcgaWQ9InNoYXBlNTIxLTE0IiB0cmFuc2Zvcm09InRyYW5zbGF0ZSg3LjAwMTY1KSI+JiN4YTsJCQkJPHRpdGxlIGlkPSJ0aXRsZTQxMzkyIj5wYXRoMzYzMS0yLTUtNS05LTg8L3RpdGxlPiYjeGE7CQkJCTxwYXRoIGlkPSJwYXRoNDEzOTQiIGlua3NjYXBlOmNvbm5lY3Rvci1jdXJ2YXR1cmU9IjAiIHN0eWxlPSJmaWxsOiM2QkI0Mjc7ZmlsbC1vcGFjaXR5OjAuODsiIGQ9Ik0yLjg5LDExNi4zOSAgICAgIGMxLjU0LDEuNDMsMi43MSwxNS45MSwyLjY4LDIxLjIxYy0wLjAyLDUuMy0wLjM0LDIuNTktMC42NiwwLjM3Yy0wLjMyLTIuMjItMC45LTguMy0yLjA4LTkuNGMtMS4xOS0xLjA5LTIuMDMsMy41Ni0yLjM3LDUuMTggICAgICBjLTAuMzQsMS42MS0wLjQ2LDMuOTktMC40My0xLjMxQzAuMDUsMTI3LjE0LDEuMzYsMTE0Ljk3LDIuODksMTE2LjM5eiIvPiYjeGE7CQkJPC9nPiYjeGE7CQk8L2c+JiN4YTsJCTxnIGlkPSJncm91cDUyMi0xNiIgdHJhbnNmb3JtPSJ0cmFuc2xhdGUoMTguMDM1OCwtMzIuMDc3KSI+JiN4YTsJCQk8dGl0bGUgaWQ9InRpdGxlNDEzOTgiPmczMzE3LTA8L3RpdGxlPiYjeGE7CQkJPGcgaWQ9InNoYXBlNTIzLTE3IiB0cmFuc2Zvcm09InJvdGF0ZSgtMzYuMjM0NSwtMzYuODM2NjQ4LDEyMy4xMjQ3KSI+JiN4YTsJCQkJPHRpdGxlIGlkPSJ0aXRsZTQxNDAwIj5wYXRoMzYyNy05LTAtOC0zLTgtNzwvdGl0bGU+JiN4YTsJCQkJPHBhdGggaWQ9InBhdGg0MTQwMiIgaW5rc2NhcGU6Y29ubmVjdG9yLWN1cnZhdHVyZT0iMCIgc3R5bGU9ImZpbGw6I0Q0NDExNzsiIGQ9Ik03LjY0LDEzOS4xMmMwLDIuMDktMS43MSwzLjc4LTMuODIsMy43OCAgICAgIFMwLDE0MS4yMSwwLDEzOS4xMnMxLjcxLTMuNzgsMy44Mi0zLjc4UzcuNjQsMTM3LjAzLDcuNjQsMTM5LjEyeiIvPiYjeGE7CQkJPC9nPiYjeGE7CQkJPGcgaWQ9InNoYXBlNTI0LTE5IiB0cmFuc2Zvcm09Im1hdHJpeCgtMSwwLDAsMSwxNi40NDk3LC0xMC41NTI2KSI+JiN4YTsJCQkJPHRpdGxlIGlkPSJ0aXRsZTQxNDA1Ij5wYXRoMzYyOS02LTQtNi04LTYtNDwvdGl0bGU+JiN4YTsJCQkJPHBhdGggaWQ9InBhdGg0MTQwNyIgaW5rc2NhcGU6Y29ubmVjdG9yLWN1cnZhdHVyZT0iMCIgc3R5bGU9ImZpbGw6I0Q0NDExNzsiIGQ9Ik0xMS40LDEzMC45OGMtMy40Ny0xLjYtOC4zOSwwLjI3LTExLjQsNC4xOCAgICAgIGwxLjI5LDAuNmMyLjQ0LTMuMDcsNi4zNC00LjUxLDkuMTEtMy4yNGMyLjc3LDEuMjgsMi4wMSw2LjQsMC4yNiw5Ljc4bDEuMjksMC42QzE0LjI0LDEzOC42NSwxNC44OCwxMzIuNTgsMTEuNCwxMzAuOTh6Ii8+JiN4YTsJCQk8L2c+JiN4YTsJCQk8ZyBpZD0ic2hhcGU1MjUtMjEiIHRyYW5zZm9ybT0ibWF0cml4KC0xLDAsMCwxLDcuNDM3MTEsMCkiPiYjeGE7CQkJCTx0aXRsZSBpZD0idGl0bGU0MTQxMCI+cGF0aDM2MzEtMi01LTgtMS03LTM8L3RpdGxlPiYjeGE7CQkJCTxwYXRoIGlkPSJwYXRoNDE0MTIiIGlua3NjYXBlOmNvbm5lY3Rvci1jdXJ2YXR1cmU9IjAiIHN0eWxlPSJmaWxsOiNENDQxMTc7IiBkPSJNMy44NCwxMTguNDdjMi4wNCwxLjMyLDMuNiwxNC42NiwzLjU2LDE5LjU0ICAgICAgYy0wLjAzLDQuODktMC40NSwyLjM5LTAuODgsMC4zNWMtMC40Mi0yLjA1LTEuMi0zLjQ3LTIuNzctNC40OWMtMS41Ny0xLjAxLTIuNjktMC44OS0zLjE0LDAuNTljLTAuNDUsMS40OS0wLjYxLDMuNjgtMC41Ny0xLjIgICAgICBDMC4wNywxMjguMzcsMS44MSwxMTcuMTYsMy44NCwxMTguNDd6Ii8+JiN4YTsJCQk8L2c+JiN4YTsJCTwvZz4mI3hhOwkJPGcgaWQ9Imdyb3VwNTI2LTIzIiB0cmFuc2Zvcm09InRyYW5zbGF0ZSg3LjYyODcxLC0yMS41NzI5KSI+JiN4YTsJCQk8dGl0bGUgaWQ9InRpdGxlNDE0MTYiPmczMTgzLTY8L3RpdGxlPiYjeGE7CQkJPGcgaWQ9InNoYXBlNTI3LTI0IiB0cmFuc2Zvcm09InJvdGF0ZSgtNDEuMjYyOCwtMzQuOTQ1ODcsMTIyLjA5NzA0KSI+JiN4YTsJCQkJPHRpdGxlIGlkPSJ0aXRsZTQxNDE4Ij5wYXRoMzYyNy05LTAtMS0zLTU1PC90aXRsZT4mI3hhOwkJCQk8cGF0aCBpZD0icGF0aDQxNDIwIiBpbmtzY2FwZTpjb25uZWN0b3ItY3VydmF0dXJlPSIwIiBzdHlsZT0iZmlsbDojRjJBNDM4OyIgZD0iTTcuNDMsMTM5LjA4YzAsMi4xMS0xLjY3LDMuODItMy43MiwzLjgyICAgICAgUzAsMTQxLjE5LDAsMTM5LjA4czEuNjYtMy44MywzLjcxLTMuODNTNy40MywxMzYuOTcsNy40MywxMzkuMDh6Ii8+JiN4YTsJCQk8L2c+JiN4YTsJCQk8ZyBpZD0ic2hhcGU1MjgtMjYiIHRyYW5zZm9ybT0ibWF0cml4KC0xLDAsMCwxLDEzLjQ3OSwtMTEuNTMwNykiPiYjeGE7CQkJCTx0aXRsZSBpZD0idGl0bGU0MTQyMyI+cGF0aDM2MjktNi00LTY3LTctNzwvdGl0bGU+JiN4YTsJCQkJPHBhdGggaWQ9InBhdGg0MTQyNSIgaW5rc2NhcGU6Y29ubmVjdG9yLWN1cnZhdHVyZT0iMCIgc3R5bGU9ImZpbGw6I0YyQTQzODsiIGQ9Ik04LjcsMTI5LjgxYy0yLjYxLTEuNzEtNi4zNywwLjQtOC43LDQuNzQgICAgICBsMC45NywwLjYzYzEuODktMy40LDQuODctNS4wMyw2Ljk2LTMuNjZjMi4wOCwxLjM2LDEuNDQsNywwLjA4LDEwLjc0bDAuOTcsMC42NEMxMC43NywxMzguMiwxMS4zMiwxMzEuNTMsOC43LDEyOS44MSAgICAgIEw4LjcsMTI5LjgxeiIvPiYjeGE7CQkJPC9nPiYjeGE7CQkJPGcgaWQ9InNoYXBlNTI5LTI4IiB0cmFuc2Zvcm09Im1hdHJpeCgtMSwwLDAsMSw3LjE0OTUsMCkiPiYjeGE7CQkJCTx0aXRsZSBpZD0idGl0bGU0MTQyOCI+cGF0aDM2MzEtMi01LTUtOS0zPC90aXRsZT4mI3hhOwkJCQk8cGF0aCBpZD0icGF0aDQxNDMwIiBpbmtzY2FwZTpjb25uZWN0b3ItY3VydmF0dXJlPSIwIiBzdHlsZT0iZmlsbDojRjJBNDM4OyIgZD0iTTMuNDgsMTE2LjM5YzEuODUsMS40MywzLjI2LDE1LjkxLDMuMjMsMjEuMjEgICAgICBjLTAuMDMsNS4zLTAuNDEsMi41OS0wLjgsMC4zN2MtMC4zOC0yLjIyLTEuMDktOC4zLTIuNTEtOS40Yy0xLjQyLTEuMDktMi40NCwzLjU2LTIuODUsNS4xOGMtMC40LDEuNjEtMC41NSwzLjk5LTAuNTItMS4zMSAgICAgIFMxLjY0LDExNC45NywzLjQ4LDExNi4zOXoiLz4mI3hhOwkJCTwvZz4mI3hhOwkJPC9nPiYjeGE7CQk8ZyBpZD0iZ3JvdXA1MzAtMzAiIHRyYW5zZm9ybT0idHJhbnNsYXRlKDAsLTUuODMzMzcpIj4mI3hhOwkJCTx0aXRsZSBpZD0idGl0bGU0MTQzNCI+Zzg0MTEtMS0xPC90aXRsZT4mI3hhOwkJCTxnIGlkPSJzaGFwZTUzMS0zMSIgdHJhbnNmb3JtPSJyb3RhdGUoLTQ2LjU2MzcsLTMwLjc4OTY2MiwxMjIuNjU4MDIpIj4mI3hhOwkJCQk8dGl0bGUgaWQ9InRpdGxlNDE0MzYiPnBhdGgzNjI3LTktMC0xLTMtMy04PC90aXRsZT4mI3hhOwkJCQk8cGF0aCBpZD0icGF0aDQxNDM4IiBpbmtzY2FwZTpjb25uZWN0b3ItY3VydmF0dXJlPSIwIiBzdHlsZT0iZmlsbDojNkJCNDI3O2ZpbGwtb3BhY2l0eTowLjg7IiBkPSJNNi43NSwxMzkuNCAgICAgIGMwLDEuOTMtMS41MSwzLjUtMy4zOCwzLjVjLTEuODYsMC0zLjM3LTEuNTctMy4zNy0zLjVzMS41MS0zLjQ5LDMuMzctMy40OUM1LjI0LDEzNS45MSw2Ljc1LDEzNy40Nyw2Ljc1LDEzOS40eiIvPiYjeGE7CQkJPC9nPiYjeGE7CQkJPGcgaWQ9InNoYXBlNTMyLTMzIiB0cmFuc2Zvcm09Im1hdHJpeCgtMSwwLDAsMSwxMy4zODU0LC0xNS4wMTY1KSI+JiN4YTsJCQkJPHRpdGxlIGlkPSJ0aXRsZTQxNDQxIj5wYXRoMzYyOS02LTQtNjctNy0xLTA8L3RpdGxlPiYjeGE7CQkJCTxwYXRoIGlkPSJwYXRoNDE0NDMiIGlua3NjYXBlOmNvbm5lY3Rvci1jdXJ2YXR1cmU9IjAiIHN0eWxlPSJmaWxsOiM2QkI0Mjc7ZmlsbC1vcGFjaXR5OjAuODsiIGQ9Ik05Ljg2LDEzMy4xMiAgICAgIGMtMC44OC0zLjE5LTUuMTgtNC40Mi05Ljg2LTIuOTdsMC4zMywxLjE5YzMuNzEtMS4wOSw3LjA5LTAuMDgsNy44LDIuNDZjMC43LDIuNTQtMy41Myw2LjE4LTcuMDcsNy45MmwwLjMzLDEuMTggICAgICBDNS44OSwxNDAuNzksMTAuNzUsMTM2LjMxLDkuODYsMTMzLjEyeiIvPiYjeGE7CQkJPC9nPiYjeGE7CQkJPGcgaWQ9InNoYXBlNTMzLTM1IiB0cmFuc2Zvcm09Im1hdHJpeCgtMSwwLDAsMSw2LjM4Mzc2LDApIj4mI3hhOwkJCQk8dGl0bGUgaWQ9InRpdGxlNDE0NDYiPnBhdGgzNjMxLTItNS01LTktOC05PC90aXRsZT4mI3hhOwkJCQk8cGF0aCBpZD0icGF0aDQxNDQ4IiBpbmtzY2FwZTpjb25uZWN0b3ItY3VydmF0dXJlPSIwIiBzdHlsZT0iZmlsbDojNkJCNDI3O2ZpbGwtb3BhY2l0eTowLjg7IiBkPSJNMi44OSwxMTYuMzkgICAgICBjMS41NCwxLjQzLDIuNzEsMTUuOTEsMi42OCwyMS4yMWMtMC4wMiw1LjMtMC4zNCwyLjU5LTAuNjYsMC4zN2MtMC4zMi0yLjIyLTAuOS04LjMtMi4wOC05LjRjLTEuMTktMS4wOS0yLjAzLDMuNTYtMi4zNyw1LjE4ICAgICAgYy0wLjM0LDEuNjEtMC40NiwzLjk5LTAuNDMtMS4zMUMwLjA1LDEyNy4xNCwxLjM2LDExNC45NywyLjg5LDExNi4zOXoiLz4mI3hhOwkJCTwvZz4mI3hhOwkJPC9nPiYjeGE7CQk8ZyBpZD0iZ3JvdXA1MzQtMzciIHRyYW5zZm9ybT0idHJhbnNsYXRlKDMzLjk2MiwtMzYuNzQxNCkiPiYjeGE7CQkJPHRpdGxlIGlkPSJ0aXRsZTQxNDUyIj5nNjgxMDwvdGl0bGU+JiN4YTsJCQk8ZyBpZD0iZ3JvdXA1MzUtMzgiIHRyYW5zZm9ybT0icm90YXRlKDEuNTkwNjksNjguNTY5Njg5LDM3NTguMDUyNikiPiYjeGE7CQkJCTx0aXRsZSBpZD0idGl0bGU0MTQ1NCI+ZzMyMjMtNy0wLTYtMy0zLTA8L3RpdGxlPiYjeGE7CQkJCTxnIGlkPSJzaGFwZTUzNi0zOSIgdHJhbnNmb3JtPSJtYXRyaXgoLTAuOTk5NzE0MzUsLTAuMDIzOTAwMzYsLTAuMDIzOTAwMzYsMC45OTk3MTQzNSwxNC44ODc3LC0yMy45MzAxKSI+JiN4YTsJCQkJCTx0aXRsZSBpZD0idGl0bGU0MTQ1NiI+cGF0aDM2MjctNi0xLTctNS0yLTA8L3RpdGxlPiYjeGE7CQkJCQk8cGF0aCBpZD0icGF0aDQxNDU4IiBpbmtzY2FwZTpjb25uZWN0b3ItY3VydmF0dXJlPSIwIiBzdHlsZT0iZmlsbDojNTc3NUIxOyIgZD0iTTcuODYsMTM3Ljk5YzAsMi43MS0xLjc2LDQuOTEtMy45Myw0LjkxICAgICAgIFMwLDE0MC43LDAsMTM3Ljk5czEuNzYtNC45MSwzLjkzLTQuOTFTNy44NiwxMzUuMjgsNy44NiwxMzcuOTl6Ii8+JiN4YTsJCQkJPC9nPiYjeGE7CQkJCTxnIGlkPSJzaGFwZTUzNy00MSIgdHJhbnNmb3JtPSJtYXRyaXgoLTEsMCwwLDEsMTguMzgzMSwtMTIuNzM0OCkiPiYjeGE7CQkJCQk8dGl0bGUgaWQ9InRpdGxlNDE0NjEiPnBhdGgzNjI5LTctMC0zLTktMi05PC90aXRsZT4mI3hhOwkJCQkJPHBhdGggaWQ9InBhdGg0MTQ2MyIgaW5rc2NhcGU6Y29ubmVjdG9yLWN1cnZhdHVyZT0iMCIgc3R5bGU9ImZpbGw6IzU3NzVCMTsiIGQ9Ik05LjAzLDEzMi4yOUM0LjI2LDEzMi40MSwwLjQsMTM3LjA1LDAsMTQyLjkgICAgICAgbDEuNzctMC4wNWMwLjQxLTQuNjIsMy40OS04LjI2LDcuMy04LjM1YzMuOC0wLjA5LDYuOTksMy4zOSw3LjU1LDhsMS43Ni0wLjA0QzE3LjgsMTM2LjYzLDEzLjgxLDEzMi4xOCw5LjAzLDEzMi4yOXoiLz4mI3hhOwkJCQk8L2c+JiN4YTsJCQkJPGcgaWQ9InNoYXBlNTM4LTQzIiB0cmFuc2Zvcm09Im1hdHJpeCgtMSwwLDAsMSwxNC4wODI3LDApIj4mI3hhOwkJCQkJPHRpdGxlIGlkPSJ0aXRsZTQxNDY2Ij5wYXRoMzYzMS00LTYtOC05LTAtMDwvdGl0bGU+JiN4YTsJCQkJCTxwYXRoIGlkPSJwYXRoNDE0NjgiIGlua3NjYXBlOmNvbm5lY3Rvci1jdXJ2YXR1cmU9IjAiIHN0eWxlPSJmaWxsOiM1Nzc1QjE7IiBkPSJNMy44NywxMTkuNDIgICAgICAgYy0yLjE5LDAuMTEtMy44NywxMy4xNi0zLjgzLDE4LjMyYzAuMDQsNS4xNiwwLjQ5LDIuOCwwLjk0LDAuOTFjMC40Ni0xLjg5LDEuNTUtMi4yMiwzLjI0LTIuMzFjMS42OS0wLjA4LDIuNjQsMC4wNywzLjEzLDEuOTIgICAgICAgYzAuNDgsMS44NSwwLjY2LDQuMjUsMC42Mi0wLjkxQzcuOTMsMTMyLjE5LDYuMDYsMTE5LjMxLDMuODcsMTE5LjQyeiIvPiYjeGE7CQkJCTwvZz4mI3hhOwkJCTwvZz4mI3hhOwkJCTxnIGlkPSJncm91cDUzOS00NSIgdHJhbnNmb3JtPSJ0cmFuc2xhdGUoMzguMTEzMiwtMy4yNTQyOCkiPiYjeGE7CQkJCTx0aXRsZSBpZD0idGl0bGU0MTQ3MiI+ZzMyMjMtNy0wLTMtMy0zPC90aXRsZT4mI3hhOwkJCQk8ZyBpZD0ic2hhcGU1NDAtNDYiIHRyYW5zZm9ybT0icm90YXRlKC0xLjA5MTg5LC0xMTg2LjM3MDEsLTIzMS40MzMxMykiPiYjeGE7CQkJCQk8dGl0bGUgaWQ9InRpdGxlNDE0NzQiPnBhdGgzNjI3LTYtMS04LTQtNDwvdGl0bGU+JiN4YTsJCQkJCTxwYXRoIGlkPSJwYXRoNDE0NzYiIGlua3NjYXBlOmNvbm5lY3Rvci1jdXJ2YXR1cmU9IjAiIHN0eWxlPSJmaWxsOiNGMkE0Mzg7IiBkPSJNOS4zMywxMzguMjRjMCwyLjU3LTIuMDksNC42Ni00LjY2LDQuNjYgICAgICAgYy0yLjU4LDAtNC42Ny0yLjA5LTQuNjctNC42NmMwLTIuNTcsMi4wOS00LjY2LDQuNjctNC42NkM3LjI0LDEzMy41OCw5LjMzLDEzNS42Nyw5LjMzLDEzOC4yNHoiLz4mI3hhOwkJCQk8L2c+JiN4YTsJCQkJPGcgaWQ9InNoYXBlNTQxLTQ4IiB0cmFuc2Zvcm09InRyYW5zbGF0ZSgwLC0xMi4wNTI4KSI+JiN4YTsJCQkJCTx0aXRsZSBpZD0idGl0bGU0MTQ3OSI+cGF0aDM2MjktNy0wLTUtNi0xPC90aXRsZT4mI3hhOwkJCQkJPHBhdGggaWQ9InBhdGg0MTQ4MSIgaW5rc2NhcGU6Y29ubmVjdG9yLWN1cnZhdHVyZT0iMCIgc3R5bGU9ImZpbGw6I0YyQTQzODsiIGQ9Ik0xMC43NSwxMzIuODYgICAgICAgQzUuMDcsMTMyLjk3LDAuNDgsMTM3LjM2LDAsMTQyLjlsMi4xLTAuMDRjMC40OS00LjM4LDQuMTYtNy44Myw4LjY5LTcuOTFjNC41Mi0wLjA5LDguMzIsMy4yMSw4Ljk4LDcuNTdsMi4xLTAuMDQgICAgICAgQzIxLjE5LDEzNi45NywxNi40MywxMzIuNzUsMTAuNzUsMTMyLjg2TDEwLjc1LDEzMi44NnoiLz4mI3hhOwkJCQk8L2c+JiN4YTsJCQkJPGcgaWQ9InNoYXBlNTQyLTUwIiB0cmFuc2Zvcm09InRyYW5zbGF0ZSg1Ljg1MDUxKSI+JiN4YTsJCQkJCTx0aXRsZSBpZD0idGl0bGU0MTQ4NCI+cGF0aDM2MzEtNC02LTEtNy0yPC90aXRsZT4mI3hhOwkJCQkJPHBhdGggaWQ9InBhdGg0MTQ4NiIgaW5rc2NhcGU6Y29ubmVjdG9yLWN1cnZhdHVyZT0iMCIgc3R5bGU9ImZpbGw6I0YyQTQzODsiIGQ9Ik00LjYsMTIwLjY4Yy0yLjYsMC4xLTQuNiwxMi40NS00LjU1LDE3LjM0ICAgICAgIGMwLjA0LDQuODgsMC41OCwyLjY0LDEuMTIsMC44NmMwLjU1LTEuNzksMS41NC02LjksMy41NS02Ljk4czMuNDUsNC44Niw0LjAyLDYuNjFjMC41OCwxLjc1LDAuNzksNC4wMiwwLjc0LTAuODYgICAgICAgQzkuNDQsMTMyLjc3LDcuMjEsMTIwLjU3LDQuNiwxMjAuNjh6Ii8+JiN4YTsJCQkJPC9nPiYjeGE7CQkJPC9nPiYjeGE7CQkJPGcgaWQ9Imdyb3VwNTQzLTUyIiB0cmFuc2Zvcm09InRyYW5zbGF0ZSg1OS45Njc2LC0zLjUxNDU1KSI+JiN4YTsJCQkJPHRpdGxlIGlkPSJ0aXRsZTQxNDkwIj5nMzIyMy03LTAtNy0xLTM8L3RpdGxlPiYjeGE7CQkJCTxnIGlkPSJzaGFwZTU0NC01MyIgdHJhbnNmb3JtPSJyb3RhdGUoLTEuMDkzMDIsLTExODUuMTYyMiwtMjAyLjA5MTE0KSI+JiN4YTsJCQkJCTx0aXRsZSBpZD0idGl0bGU0MTQ5MiI+cGF0aDM2MjctNi0xLTQtNi0wPC90aXRsZT4mI3hhOwkJCQkJPHBhdGggaWQ9InBhdGg0MTQ5NCIgaW5rc2NhcGU6Y29ubmVjdG9yLWN1cnZhdHVyZT0iMCIgc3R5bGU9ImZpbGw6I0Q0NDExNzsiIGQ9Ik05LjMyLDEzOC4yM2MwLDIuNTgtMi4wOCw0LjY3LTQuNjYsNC42NyAgICAgICBjLTIuNTcsMC00LjY2LTIuMDktNC42Ni00LjY3YzAtMi41NywyLjA5LTQuNjYsNC42Ni00LjY2QzcuMjQsMTMzLjU3LDkuMzIsMTM1LjY2LDkuMzIsMTM4LjIzeiIvPiYjeGE7CQkJCTwvZz4mI3hhOwkJCQk8ZyBpZD0ic2hhcGU1NDUtNTUiIHRyYW5zZm9ybT0idHJhbnNsYXRlKDAsLTEyLjA1MjgpIj4mI3hhOwkJCQkJPHRpdGxlIGlkPSJ0aXRsZTQxNDk3Ij5wYXRoMzYyOS03LTAtMzItNy01PC90aXRsZT4mI3hhOwkJCQkJPHBhdGggaWQ9InBhdGg0MTQ5OSIgaW5rc2NhcGU6Y29ubmVjdG9yLWN1cnZhdHVyZT0iMCIgc3R5bGU9ImZpbGw6I0Q0NDExNzsiIGQ9Ik0xMC43NSwxMzIuODYgICAgICAgQzUuMDcsMTMyLjk3LDAuNDgsMTM3LjM2LDAsMTQyLjlsMi4xLTAuMDRjMC40OS00LjM4LDQuMTYtNy44Myw4LjY5LTcuOTFjNC41Mi0wLjA5LDguMzIsMy4yMSw4Ljk4LDcuNTdsMi4xLTAuMDQgICAgICAgQzIxLjE5LDEzNi45NywxNi40MywxMzIuNzUsMTAuNzUsMTMyLjg2TDEwLjc1LDEzMi44NnoiLz4mI3hhOwkJCQk8L2c+JiN4YTsJCQkJPGcgaWQ9InNoYXBlNTQ2LTU3IiB0cmFuc2Zvcm09InRyYW5zbGF0ZSg2LjE3MzUyKSI+JiN4YTsJCQkJCTx0aXRsZSBpZD0idGl0bGU0MTUwMiI+cGF0aDM2MzEtNC02LTg3LTgtMTwvdGl0bGU+JiN4YTsJCQkJCTxwYXRoIGlkPSJwYXRoNDE1MDQiIGlua3NjYXBlOmNvbm5lY3Rvci1jdXJ2YXR1cmU9IjAiIHN0eWxlPSJmaWxsOiNENDQxMTc7IiBkPSJNNC42LDEyMC42OGMtMi42LDAuMS00LjYsMTIuNDUtNC41NSwxNy4zNCAgICAgICBjMC4wNCw0Ljg4LDAuNTgsMi42NCwxLjEyLDAuODZjMC41NS0xLjc5LDEuNTQtNi45LDMuNTUtNi45OHMzLjQ1LDQuODYsNC4wMiw2LjYxYzAuNTgsMS43NSwwLjc5LDQuMDIsMC43NC0wLjg2ICAgICAgIEM5LjQ0LDEzMi43Nyw3LjIxLDEyMC41Nyw0LjYsMTIwLjY4eiIvPiYjeGE7CQkJCTwvZz4mI3hhOwkJCTwvZz4mI3hhOwkJCTxnIGlkPSJncm91cDU0Ny01OSIgdHJhbnNmb3JtPSJyb3RhdGUoMS41OTA2OSwxMjEuNjcwNjYsMzA2NS40NjU4KSI+JiN4YTsJCQkJPHRpdGxlIGlkPSJ0aXRsZTQxNTA4Ij5nMzIyMy03LTAtMy01LTEtODwvdGl0bGU+JiN4YTsJCQkJPGcgaWQ9InNoYXBlNTQ4LTYwIiB0cmFuc2Zvcm09Im1hdHJpeCgtMC45OTk3MjQ0LC0wLjAyMzQ3NjE5LC0wLjAyMzQ3NjE5LDAuOTk5NzI0NCwxNS4wNzU2LC0yMy45MzExKSI+JiN4YTsJCQkJCTx0aXRsZSBpZD0idGl0bGU0MTUxMCI+cGF0aDM2MjctNi0xLTgtMC04LTI8L3RpdGxlPiYjeGE7CQkJCQk8cGF0aCBpZD0icGF0aDQxNTEyIiBpbmtzY2FwZTpjb25uZWN0b3ItY3VydmF0dXJlPSIwIiBzdHlsZT0iZmlsbDojRjJBNDM4OyIgZD0iTTguMDEsMTM3Ljk5YzAsMi43MS0xLjgsNC45MS00LjAxLDQuOTEgICAgICAgcy00LTIuMi00LTQuOTFjMC0yLjcxLDEuNzktNC45MSw0LTQuOTFTOC4wMSwxMzUuMjgsOC4wMSwxMzcuOTl6Ii8+JiN4YTsJCQkJPC9nPiYjeGE7CQkJCTxnIGlkPSJzaGFwZTU0OS02MiIgdHJhbnNmb3JtPSJtYXRyaXgoLTEsMCwwLDEsMTguNzE2OSwtMTIuNzM0OCkiPiYjeGE7CQkJCQk8dGl0bGUgaWQ9InRpdGxlNDE1MTUiPnBhdGgzNjI5LTctMC01LTUtNy0wPC90aXRsZT4mI3hhOwkJCQkJPHBhdGggaWQ9InBhdGg0MTUxNyIgaW5rc2NhcGU6Y29ubmVjdG9yLWN1cnZhdHVyZT0iMCIgc3R5bGU9ImZpbGw6I0YyQTQzODsiIGQ9Ik05LjIsMTMyLjI5Yy00Ljg2LDAuMTItOC43OSw0Ljc2LTkuMiwxMC42MSAgICAgICBsMS44LTAuMDVjMC40Mi00LjYyLDMuNTYtOC4yNiw3LjQzLTguMzVjMy44Ny0wLjA5LDcuMTMsMy4zOSw3LjY5LDhsMS44LTAuMDRDMTguMTMsMTM2LjYzLDE0LjA2LDEzMi4xOCw5LjIsMTMyLjI5eiIvPiYjeGE7CQkJCTwvZz4mI3hhOwkJCQk8ZyBpZD0ic2hhcGU1NTAtNjQiIHRyYW5zZm9ybT0ibWF0cml4KC0xLDAsMCwxLDE0LjMxNzMsMCkiPiYjeGE7CQkJCQk8dGl0bGUgaWQ9InRpdGxlNDE1MjAiPnBhdGgzNjMxLTQtNi0xLTUtOS00PC90aXRsZT4mI3hhOwkJCQkJPHBhdGggaWQ9InBhdGg0MTUyMiIgaW5rc2NhcGU6Y29ubmVjdG9yLWN1cnZhdHVyZT0iMCIgc3R5bGU9ImZpbGw6I0YyQTQzODsiIGQ9Ik0zLjk0LDExOS40MmMtMi4yMywwLjExLTMuOTQsMTMuMTYtMy45LDE4LjMyICAgICAgIGMwLjA0LDUuMTYsMC41LDIuOCwwLjk2LDAuOTFjMC40Ny0xLjg5LDEuMzItNy4yOSwzLjA0LTcuMzdzMi45NSw1LjEzLDMuNDQsNi45OGMwLjUsMS44NSwwLjY3LDQuMjUsMC42My0wLjkxICAgICAgIEM4LjA3LDEzMi4xOSw2LjE3LDExOS4zMSwzLjk0LDExOS40MnoiLz4mI3hhOwkJCQk8L2c+JiN4YTsJCQk8L2c+JiN4YTsJCQk8ZyBpZD0iZ3JvdXA1NTEtNjYiIHRyYW5zZm9ybT0icm90YXRlKC0yLjc1MTY2LC0yOC43MjYxOCwtMjY0Ljg4MjI4KSI+JiN4YTsJCQkJPHRpdGxlIGlkPSJ0aXRsZTQxNTI2Ij5nMzIyMy03LTAtMy00LTYtMi04LTc8L3RpdGxlPiYjeGE7CQkJCTxnIGlkPSJzaGFwZTU1Mi02NyIgdHJhbnNmb3JtPSJtYXRyaXgoLTAuOTk5NzQ1NjcsLTAuMDIyNTUxOTMsLTAuMDIyNTUxOTMsMC45OTk3NDU2NywxOC4zOTM1LC0yMy42ODUyKSI+JiN4YTsJCQkJCTx0aXRsZSBpZD0idGl0bGU0MTUyOCI+cGF0aDM2MjctNi0xLTgtOC0zLTctNi0wPC90aXRsZT4mI3hhOwkJCQkJPHBhdGggaWQ9InBhdGg0MTUzMCIgaW5rc2NhcGU6Y29ubmVjdG9yLWN1cnZhdHVyZT0iMCIgc3R5bGU9ImZpbGw6IzU3NzVCMTsiIGQ9Ik04LjI2LDEzOGMwLDIuNzEtMS44NSw0LjktNC4xMyw0LjkgICAgICAgUzAsMTQwLjcxLDAsMTM4YzAtMi43LDEuODUtNC44OSw0LjEzLTQuODlTOC4yNiwxMzUuMyw4LjI2LDEzOHoiLz4mI3hhOwkJCQk8L2c+JiN4YTsJCQkJPGcgaWQ9InNoYXBlNTUzLTY5IiB0cmFuc2Zvcm09Im1hdHJpeCgtMSwwLDAsMSwxOS40MjkyLC0xMi42MTkpIj4mI3hhOwkJCQkJPHRpdGxlIGlkPSJ0aXRsZTQxNTMzIj5wYXRoMzYyOS03LTAtNS03LTAtMy00LTI8L3RpdGxlPiYjeGE7CQkJCQk8cGF0aCBpZD0icGF0aDQxNTM1IiBpbmtzY2FwZTpjb25uZWN0b3ItY3VydmF0dXJlPSIwIiBzdHlsZT0iZmlsbDojNTc3NUIxOyIgZD0iTTkuNTUsMTMyLjM5QzQuNSwxMzIuNSwwLjQzLDEzNy4xLDAsMTQyLjkgICAgICAgbDEuODctMC4wNWMwLjQzLTQuNTgsMy42OS04LjE4LDcuNzEtOC4yOGM0LjAyLTAuMDksNy40LDMuMzcsNy45OCw3LjkzbDEuODctMC4wNEMxOC44MiwxMzYuNjksMTQuNTksMTMyLjI4LDkuNTUsMTMyLjM5ICAgICAgIEw5LjU1LDEzMi4zOXoiLz4mI3hhOwkJCQk8L2c+JiN4YTsJCQkJPGcgaWQ9InNoYXBlNTU0LTcxIiB0cmFuc2Zvcm09Im1hdHJpeCgtMSwwLDAsMSwxMy4xMTIyLDApIj4mI3hhOwkJCQkJPHRpdGxlIGlkPSJ0aXRsZTQxNTM4Ij5wYXRoMzYzMS00LTYtMS0zLTItOS01LTU8L3RpdGxlPiYjeGE7CQkJCQk8cGF0aCBpZD0icGF0aDQxNTQwIiBpbmtzY2FwZTpjb25uZWN0b3ItY3VydmF0dXJlPSIwIiBzdHlsZT0iZmlsbDojNTc3NUIxOyIgZD0iTTQuMDksMTE5LjYzICAgICAgIGMtMi4zMiwwLjExLTQuMDksMTMuMDQtNC4wNSwxOC4xNmMwLjA0LDUuMTEsMC41MiwyLjc3LDEsMC45YzAuNDgtMS44NywxLjM3LTcuMjIsMy4xNS03LjNjMS43OS0wLjA5LDMuMDYsNS4wOCwzLjU4LDYuOTEgICAgICAgYzAuNTEsMS44MywwLjY5LDQuMjEsMC42NS0wLjlDOC4zOCwxMzIuMjksNi40LDExOS41Myw0LjA5LDExOS42M3oiLz4mI3hhOwkJCQk8L2c+JiN4YTsJCQk8L2c+JiN4YTsJCQk8ZyBpZD0iZ3JvdXA1NTUtNzMiIHRyYW5zZm9ybT0icm90YXRlKC0xLjU5MDY5LC0zNS44MzAwMjMsMTA4LjQyNjA4KSI+JiN4YTsJCQkJPHRpdGxlIGlkPSJ0aXRsZTQxNTQ0Ij5nMzIyMy03LTAtNi0zLTMtMC03PC90aXRsZT4mI3hhOwkJCQk8ZyBpZD0ic2hhcGU1NTYtNzQiIHRyYW5zZm9ybT0icm90YXRlKC0xLjM2OTUyLC05OTkuMzUzNzUsLTE1OC4xOTMwMikiPiYjeGE7CQkJCQk8dGl0bGUgaWQ9InRpdGxlNDE1NDYiPnBhdGgzNjI3LTYtMS03LTUtMi0wLTM8L3RpdGxlPiYjeGE7CQkJCQk8cGF0aCBpZD0icGF0aDQxNTQ4IiBpbmtzY2FwZTpjb25uZWN0b3ItY3VydmF0dXJlPSIwIiBzdHlsZT0iZmlsbDojNkJCNDI3OyIgZD0iTTcuODYsMTM3Ljk5YzAsMi43MS0xLjc2LDQuOTEtMy45Myw0LjkxICAgICAgIFMwLDE0MC43LDAsMTM3Ljk5czEuNzYtNC45MSwzLjkzLTQuOTFTNy44NiwxMzUuMjgsNy44NiwxMzcuOTl6Ii8+JiN4YTsJCQkJPC9nPiYjeGE7CQkJCTxnIGlkPSJzaGFwZTU1Ny03NiIgdHJhbnNmb3JtPSJ0cmFuc2xhdGUoMCwtMTIuNzM0OCkiPiYjeGE7CQkJCQk8dGl0bGUgaWQ9InRpdGxlNDE1NTEiPnBhdGgzNjI5LTctMC0zLTktMi05LTY8L3RpdGxlPiYjeGE7CQkJCQk8cGF0aCBpZD0icGF0aDQxNTUzIiBpbmtzY2FwZTpjb25uZWN0b3ItY3VydmF0dXJlPSIwIiBzdHlsZT0iZmlsbDojNkJCNDI3OyIgZD0iTTkuMDMsMTMyLjI5QzQuMjYsMTMyLjQxLDAuNCwxMzcuMDUsMCwxNDIuOSAgICAgICBsMS43Ny0wLjA1YzAuNDEtNC42MiwzLjQ5LTguMjYsNy4zLTguMzVjMy44LTAuMDksNi45OSwzLjM5LDcuNTUsOGwxLjc2LTAuMDRDMTcuOCwxMzYuNjMsMTMuODEsMTMyLjE4LDkuMDMsMTMyLjI5eiIvPiYjeGE7CQkJCTwvZz4mI3hhOwkJCQk8ZyBpZD0ic2hhcGU1NTgtNzgiIHRyYW5zZm9ybT0idHJhbnNsYXRlKDQuMzAwNCkiPiYjeGE7CQkJCQk8dGl0bGUgaWQ9InRpdGxlNDE1NTYiPnBhdGgzNjMxLTQtNi04LTktMC0wLTA8L3RpdGxlPiYjeGE7CQkJCQk8cGF0aCBpZD0icGF0aDQxNTU4IiBpbmtzY2FwZTpjb25uZWN0b3ItY3VydmF0dXJlPSIwIiBzdHlsZT0iZmlsbDojNkJCNDI3OyIgZD0iTTMuODcsMTE5LjQyICAgICAgIGMtMi4xOSwwLjExLTMuODcsMTMuMTYtMy44MywxOC4zMmMwLjA0LDUuMTYsMC40OSwyLjgsMC45NCwwLjkxYzAuNDYtMS44OSwxLjU1LTIuMjIsMy4yNC0yLjMxYzEuNjktMC4wOCwyLjY0LDAuMDcsMy4xMywxLjkyICAgICAgIGMwLjQ4LDEuODUsMC42Niw0LjI1LDAuNjItMC45MUM3LjkzLDEzMi4xOSw2LjA2LDExOS4zMSwzLjg3LDExOS40MnoiLz4mI3hhOwkJCQk8L2c+JiN4YTsJCQk8L2c+JiN4YTsJCTwvZz4mI3hhOwkJPGcgaWQ9Imdyb3VwNTU5LTgwIiB0cmFuc2Zvcm09InRyYW5zbGF0ZSgxNTIuNjcyLC0zMS40NTAyKSI+JiN4YTsJCQk8dGl0bGUgaWQ9InRpdGxlNDE1NjMiPmczMzE3LTAtNjwvdGl0bGU+JiN4YTsJCQk8ZyBpZD0ic2hhcGU1NjAtODEiIHRyYW5zZm9ybT0ibWF0cml4KC0wLjgwNjYwNDU0LC0wLjU5MTA5MTQ2LC0wLjU5MTA5MTQ2LDAuODA2NjA0NTQsOTYuMzUxNywyLjAzNzkzKSI+JiN4YTsJCQkJPHRpdGxlIGlkPSJ0aXRsZTQxNTY1Ij5wYXRoMzYyNy05LTAtOC0zLTgtNy02PC90aXRsZT4mI3hhOwkJCQk8cGF0aCBpZD0icGF0aDQxNTY3IiBpbmtzY2FwZTpjb25uZWN0b3ItY3VydmF0dXJlPSIwIiBzdHlsZT0iZmlsbDojRDQ0MTE3OyIgZD0iTTcuNjQsMTM5LjEyYzAsMi4wOS0xLjcxLDMuNzgtMy44MiwzLjc4ICAgICAgYy0yLjExLDAtMy44Mi0xLjY5LTMuODItMy43OHMxLjcxLTMuNzgsMy44Mi0zLjc4QzUuOTMsMTM1LjM0LDcuNjQsMTM3LjAzLDcuNjQsMTM5LjEyeiIvPiYjeGE7CQkJPC9nPiYjeGE7CQkJPGcgaWQ9InNoYXBlNTYxLTgzIiB0cmFuc2Zvcm09InRyYW5zbGF0ZSgwLC0xMC41NTI2KSI+JiN4YTsJCQkJPHRpdGxlIGlkPSJ0aXRsZTQxNTcwIj5wYXRoMzYyOS02LTQtNi04LTYtNC03PC90aXRsZT4mI3hhOwkJCQk8cGF0aCBpZD0icGF0aDQxNTcyIiBpbmtzY2FwZTpjb25uZWN0b3ItY3VydmF0dXJlPSIwIiBzdHlsZT0iZmlsbDojRDQ0MTE3OyIgZD0iTTExLjQsMTMwLjk4Yy0zLjQ3LTEuNi04LjM5LDAuMjctMTEuNCw0LjE4ICAgICAgbDEuMjksMC42YzIuNDQtMy4wNyw2LjM0LTQuNTEsOS4xMS0zLjI0YzIuNzcsMS4yOCwyLjAxLDYuNCwwLjI2LDkuNzhsMS4yOSwwLjZDMTQuMjQsMTM4LjY1LDE0Ljg4LDEzMi41OCwxMS40LDEzMC45OHoiLz4mI3hhOwkJCTwvZz4mI3hhOwkJCTxnIGlkPSJzaGFwZTU2Mi04NSIgdHJhbnNmb3JtPSJ0cmFuc2xhdGUoOS4wMTI1OCkiPiYjeGE7CQkJCTx0aXRsZSBpZD0idGl0bGU0MTU3NSI+cGF0aDM2MzEtMi01LTgtMS03LTMtNDwvdGl0bGU+JiN4YTsJCQkJPHBhdGggaWQ9InBhdGg0MTU3NyIgaW5rc2NhcGU6Y29ubmVjdG9yLWN1cnZhdHVyZT0iMCIgc3R5bGU9ImZpbGw6I0Q0NDExNzsiIGQ9Ik0zLjg0LDExOC40N2MyLjA0LDEuMzIsMy42LDE0LjY2LDMuNTYsMTkuNTQgICAgICBjLTAuMDMsNC44OS0wLjQ1LDIuMzktMC44OCwwLjM1Yy0wLjQyLTIuMDUtMS4yLTMuNDctMi43Ny00LjQ5Yy0xLjU3LTEuMDEtMi42OS0wLjg5LTMuMTQsMC41OWMtMC40NSwxLjQ5LTAuNjEsMy42OC0wLjU3LTEuMiAgICAgIEMwLjA3LDEyOC4zNywxLjgxLDExNy4xNiwzLjg0LDExOC40N3oiLz4mI3hhOwkJCTwvZz4mI3hhOwkJPC9nPiYjeGE7CQk8ZyBpZD0iZ3JvdXA1NjMtODciIHRyYW5zZm9ybT0idHJhbnNsYXRlKDQ2LjA4NzIsLTkuNzMyNzMpIj4mI3hhOwkJCTx0aXRsZSBpZD0idGl0bGU0MTU4MSI+Qml6VGFsayBTZXJ2ZXI8L3RpdGxlPiYjeGE7CQkJPGcgaWQ9InNoYXBlNTY0LTg4IiB0cmFuc2Zvcm09InRyYW5zbGF0ZSgxNi4zNDUyLC0xMy41NDQ3KSI+JiN4YTsJCQkJPHRpdGxlIGlkPSJ0aXRsZTQxNTgzIj5TaGVldC41NjQ8L3RpdGxlPiYjeGE7CQkJCTxwYXRoIGlkPSJwYXRoNDE1ODUiIGlua3NjYXBlOmNvbm5lY3Rvci1jdXJ2YXR1cmU9IjAiIHN0eWxlPSJmaWxsOiMzRjQ3OEY7IiBkPSJNNjUuNDQsMjQuMDNINC44Yy0yLjY0LDAtNC44LDIuMTYtNC44LDQuOCAgICAgIHY3OS42OWgyNS45M2MyLjY0LDAsNC44LDIuMTYsNC44LDQuOHY0Ljc5YzEtMC43LDIuMjItMS4xMSwzLjUzLTEuMTFjMy40NSwwLDYuMjMsMi43OSw2LjIzLDYuMjNjMCwzLjQ1LTIuNzksNi4yNC02LjIzLDYuMjQgICAgICBjLTEuMzEsMC0yLjUzLTAuNDEtMy41My0xLjExdjE0LjU0aDM0LjcxYzIuNjMsMCw0Ljc5LTIuMTYsNC43OS00LjhWMjguODNDNzAuMjMsMjYuMTksNjguMDcsMjQuMDMsNjUuNDQsMjQuMDN6IE01Mi4yOSw4NCAgICAgIEgxNy45OGMtMi42MywwLTQuNzktMS45Ni00Ljc5LTQuMzVjMC0yLjQsMi4xNi00LjM2LDQuNzktNC4zNmgzNC4zMWMyLjY0LDAsNC44LDEuOTYsNC44LDQuMzZDNTcuMDksODIuMDQsNTQuOTMsODQsNTIuMjksODR6ICAgICAgIE01Mi4yOSw2NS41NkgxNy45OGMtMi42MywwLTQuNzktMS45Ni00Ljc5LTQuMzVjMC0yLjQsMi4xNi00LjM2LDQuNzktNC4zNmgzNC4zMWMyLjY0LDAsNC44LDEuOTYsNC44LDQuMzYgICAgICBDNTcuMDksNjMuNiw1NC45Myw2NS41Niw1Mi4yOSw2NS41NnogTTUyLjI5LDQ3LjM5SDE3Ljk4Yy0yLjYzLDAtNC43OS0xLjk2LTQuNzktNC4zNWMwLTIuNCwyLjE2LTQuMzYsNC43OS00LjM2aDM0LjMxICAgICAgYzIuNjQsMCw0LjgsMS45Niw0LjgsNC4zNkM1Ny4wOSw0NS40Myw1NC45Myw0Ny4zOSw1Mi4yOSw0Ny4zOXoiLz4mI3hhOwkJCTwvZz4mI3hhOwkJCTxnIGlkPSJzaGFwZTU2NS05MCI+JiN4YTsJCQkJPHRpdGxlIGlkPSJ0aXRsZTQxNTg4Ij5TaGVldC41NjU8L3RpdGxlPiYjeGE7CQkJCTxwYXRoIGlkPSJwYXRoNDE1OTAiIGlua3NjYXBlOmNvbm5lY3Rvci1jdXJ2YXR1cmU9IjAiIHN0eWxlPSJmaWxsOiMzRjQ3OEY7IiBkPSJNMzkuMjYsOTguMThINC44Yy0yLjY0LDAtNC44LDIuMTYtNC44LDQuOCAgICAgIHYzNS4xMmMwLDIuNjQsMi4xNiw0LjgsNC44LDQuOGgzNC40NmMyLjY0LDAsNC44LTIuMTYsNC44LTQuOHYtMzUuMTJDNDQuMDYsMTAwLjM0LDQxLjksOTguMTgsMzkuMjYsOTguMTh6IE0zMy41LDEzOS4xMyAgICAgIGMtMi42OSwwLTQuODctMi4xOC00Ljg3LTQuODdjMC0yLjE5LDEuNDMtNC4wMywzLjQxLTQuNjV2LTYuNzFIMTIuMDJ2Ni43MWMxLjk4LDAuNjIsMy40MiwyLjQ2LDMuNDIsNC42NSAgICAgIGMwLDIuNjktMi4xOCw0Ljg3LTQuODcsNC44N3MtNC44Ny0yLjE4LTQuODctNC44N2MwLTIuMTUsMS4zOS0zLjk3LDMuMzItNC42MnYtNy4zNGMwLTEuMzIsMS4wOC0yLjQsMi40LTIuNGg5LjExdi04LjQ0ICAgICAgYy0xLjk1LTAuNjQtMy4zNy0yLjQ3LTMuMzctNC42NGMwLTIuNjksMi4xOC00Ljg3LDQuODctNC44N3M0Ljg3LDIuMTgsNC44Nyw0Ljg3YzAsMi4xNy0xLjQxLDQtMy4zNyw0LjY0djguNDRoMC4wMmg5LjA5ICAgICAgYzEuMzIsMCwyLjQsMS4wOCwyLjQsMi40djcuMzRjMS45MywwLjY1LDMuMzMsMi40NywzLjMzLDQuNjJDMzguMzcsMTM2Ljk1LDM2LjE5LDEzOS4xMywzMy41LDEzOS4xM0wzMy41LDEzOS4xM3oiLz4mI3hhOwkJCTwvZz4mI3hhOwkJPC9nPiYjeGE7CQk8ZyBpZD0iZ3JvdXA1NjYtOTIiIHRyYW5zZm9ybT0idHJhbnNsYXRlKDExLjAxKSI+JiN4YTsJCQk8dGl0bGUgaWQ9InRpdGxlNDE1OTQiPmczNzE2PC90aXRsZT4mI3hhOwkJCTxnIGlkPSJncm91cDU2Ny05MyIgdHJhbnNmb3JtPSJyb3RhdGUoMS41OTk5OSw0Ny4zNDM3NjIsODQzLjM5NTY1KSI+JiN4YTsJCQkJPHRpdGxlIGlkPSJ0aXRsZTQxNTk2Ij5nMzIyMy03LTAtNi0zPC90aXRsZT4mI3hhOwkJCQk8ZyBpZD0ic2hhcGU1NjgtOTQiIHRyYW5zZm9ybT0ibWF0cml4KC0wLjk5OTcwNDY1LC0wLjAyNDMwMjcxLC0wLjAyNDMwMjcxLDAuOTk5NzA0NjUsMjAuMTAzLC0yOS4yODY0KSI+JiN4YTsJCQkJCTx0aXRsZSBpZD0idGl0bGU0MTU5OCI+cGF0aDM2MjctNi0xLTctNTwvdGl0bGU+JiN4YTsJCQkJCTxwYXRoIGlkPSJwYXRoNDE2MDAiIGlua3NjYXBlOmNvbm5lY3Rvci1jdXJ2YXR1cmU9IjAiIHN0eWxlPSJmaWxsOiM1Nzc1QjE7IiBkPSJNOS40NywxMzYuODVjMCwzLjM0LTIuMTIsNi4wNS00LjczLDYuMDUgICAgICAgYy0yLjYyLDAtNC43NC0yLjcxLTQuNzQtNi4wNWMwLTMuMzMsMi4xMi02LjA0LDQuNzQtNi4wNEM3LjM1LDEzMC44MSw5LjQ3LDEzMy41Miw5LjQ3LDEzNi44NXoiLz4mI3hhOwkJCQk8L2c+JiN4YTsJCQkJPGcgaWQ9InNoYXBlNTY5LTk2IiB0cmFuc2Zvcm09Im1hdHJpeCgtMSwwLDAsMSwyMi4yNTM5LC0xNS41OTcyKSI+JiN4YTsJCQkJCTx0aXRsZSBpZD0idGl0bGU0MTYwMyI+cGF0aDM2MjktNy0wLTMtOTwvdGl0bGU+JiN4YTsJCQkJCTxwYXRoIGlkPSJwYXRoNDE2MDUiIGlua3NjYXBlOmNvbm5lY3Rvci1jdXJ2YXR1cmU9IjAiIHN0eWxlPSJmaWxsOiM1Nzc1QjE7IiBkPSJNMTAuOTQsMTI5LjkxICAgICAgIEM1LjE2LDEzMC4wNSwwLjQ5LDEzNS43MywwLDE0Mi45bDIuMTQtMC4wNmMwLjUtNS42Niw0LjIzLTEwLjEyLDguODQtMTAuMjNjNC42LTAuMTEsOC40Nyw0LjE2LDkuMTMsOS44bDIuMTQtMC4wNSAgICAgICBDMjEuNTUsMTM1LjIyLDE2LjcxLDEyOS43NywxMC45NCwxMjkuOTF6Ii8+JiN4YTsJCQkJPC9nPiYjeGE7CQkJCTxnIGlkPSJzaGFwZTU3MC05OCIgdHJhbnNmb3JtPSJtYXRyaXgoLTEsMCwwLDEsMTUuNDQyNywwKSI+JiN4YTsJCQkJCTx0aXRsZSBpZD0idGl0bGU0MTYwOCI+cGF0aDM2MzEtNC02LTgtOTwvdGl0bGU+JiN4YTsJCQkJCTxwYXRoIGlkPSJwYXRoNDE2MTAiIGlua3NjYXBlOmNvbm5lY3Rvci1jdXJ2YXR1cmU9IjAiIHN0eWxlPSJmaWxsOiM1Nzc1QjE7IiBkPSJNNC42OCwxMTQuMTQgICAgICAgYy0yLjY1LDAuMTMtNC42OCwxNi4xMi00LjYzLDIyLjQ0YzAuMDQsNi4zMiwwLjU5LDMuNDMsMS4xNCwxLjExYzAuNTUtMi4zMSwxLjg3LTIuNzIsMy45Mi0yLjgyYzIuMDQtMC4xLDMuMiwwLjA5LDMuNzksMi4zNSAgICAgICBjMC41OCwyLjI2LDAuNzksNS4yLDAuNzUtMS4xMUM5LjYsMTI5Ljc5LDcuMzMsMTE0LjAxLDQuNjgsMTE0LjE0eiIvPiYjeGE7CQkJCTwvZz4mI3hhOwkJCTwvZz4mI3hhOwkJCTxnIGlkPSJncm91cDU3MS0xMDAiIHRyYW5zZm9ybT0idHJhbnNsYXRlKDcwLjE2MDQpIj4mI3hhOwkJCQk8dGl0bGUgaWQ9InRpdGxlNDE2MTQiPmczMjIzLTctMC0zPC90aXRsZT4mI3hhOwkJCQk8ZyBpZD0ic2hhcGU1NzItMTAxIiB0cmFuc2Zvcm09Im1hdHJpeCgtMC45OTk4MTg0MiwtMC4wMTkwNTU5MiwtMC4wMTkwNTU5MiwwLjk5OTgxODQyLDIyLjA1NzEsLTI5LjI4NDcpIj4mI3hhOwkJCQkJPHRpdGxlIGlkPSJ0aXRsZTQxNjE2Ij5wYXRoMzYyNy02LTEtODwvdGl0bGU+JiN4YTsJCQkJCTxwYXRoIGlkPSJwYXRoNDE2MTgiIGlua3NjYXBlOmNvbm5lY3Rvci1jdXJ2YXR1cmU9IjAiIHN0eWxlPSJmaWxsOiNGMkE0Mzg7IiBkPSJNMTIuMDYsMTM2Ljg4YzAsMy4zMi0yLjcsNi4wMi02LjAzLDYuMDIgICAgICAgUzAsMTQwLjIsMCwxMzYuODhjMC0zLjMzLDIuNy02LjAyLDYuMDMtNi4wMlMxMi4wNiwxMzMuNTUsMTIuMDYsMTM2Ljg4eiIvPiYjeGE7CQkJCTwvZz4mI3hhOwkJCQk8ZyBpZD0ic2hhcGU1NzMtMTAzIiB0cmFuc2Zvcm09Im1hdHJpeCgtMSwwLDAsMSwyOC4yNzYxLC0xNS41Nzk3KSI+JiN4YTsJCQkJCTx0aXRsZSBpZD0idGl0bGU0MTYyMSI+cGF0aDM2MjktNy0wLTU8L3RpdGxlPiYjeGE7CQkJCQk8cGF0aCBpZD0icGF0aDQxNjIzIiBpbmtzY2FwZTpjb25uZWN0b3ItY3VydmF0dXJlPSIwIiBzdHlsZT0iZmlsbDojRjJBNDM4OyIgZD0iTTEzLjg5LDEyOS45MiAgICAgICBDNi41NSwxMzAuMDYsMC42MiwxMzUuNzQsMCwxNDIuOWwyLjcyLTAuMDZjMC42My01LjY2LDUuMzgtMTAuMTEsMTEuMjMtMTAuMjJjNS44NC0wLjExLDEwLjc2LDQuMTYsMTEuNjEsOS43OWwyLjcyLTAuMDUgICAgICAgQzI3LjM4LDEzNS4yMywyMS4yNCwxMjkuNzgsMTMuODksMTI5LjkyTDEzLjg5LDEyOS45MnoiLz4mI3hhOwkJCQk8L2c+JiN4YTsJCQkJPGcgaWQ9InNoYXBlNTc0LTEwNSIgdHJhbnNmb3JtPSJtYXRyaXgoLTEsMCwwLDEsMjAuNzEzNiwwKSI+JiN4YTsJCQkJCTx0aXRsZSBpZD0idGl0bGU0MTYyNiI+cGF0aDM2MzEtNC02LTE8L3RpdGxlPiYjeGE7CQkJCQk8cGF0aCBpZD0icGF0aDQxNjI4IiBpbmtzY2FwZTpjb25uZWN0b3ItY3VydmF0dXJlPSIwIiBzdHlsZT0iZmlsbDojRjJBNDM4OyIgZD0iTTUuOTUsMTE0LjE3QzIuNTgsMTE0LjMsMCwxMzAuMjgsMC4wNiwxMzYuNTkgICAgICAgczAuNzUsMy40MiwxLjQ1LDEuMTFjMC43MS0yLjMxLDEuOTktOC45MSw0LjU5LTkuMDFjMi42LTAuMTEsNC40Niw2LjI4LDUuMiw4LjUzYzAuNzUsMi4yNiwxLjAyLDUuMiwwLjk2LTEuMTEgICAgICAgQzEyLjIsMTI5LjgsOS4zMiwxMTQuMDQsNS45NSwxMTQuMTd6Ii8+JiN4YTsJCQkJPC9nPiYjeGE7CQkJPC9nPiYjeGE7CQkJPGcgaWQ9Imdyb3VwNTc1LTEwNyIgdHJhbnNmb3JtPSJ0cmFuc2xhdGUoNDEuOTMxOSwtMC4zMzY0NDcpIj4mI3hhOwkJCQk8dGl0bGUgaWQ9InRpdGxlNDE2MzIiPmczMjIzLTctMC03PC90aXRsZT4mI3hhOwkJCQk8ZyBpZD0ic2hhcGU1NzYtMTA4IiB0cmFuc2Zvcm09Im1hdHJpeCgtMC45OTk4MTgwNCwtMC4wMTkwNzU2NCwtMC4wMTkwNzU2NCwwLjk5OTgxODA0LDIyLjc3NDEsLTI5LjI3ODUpIj4mI3hhOwkJCQkJPHRpdGxlIGlkPSJ0aXRsZTQxNjM0Ij5wYXRoMzYyNy02LTEtNDwvdGl0bGU+JiN4YTsJCQkJCTxwYXRoIGlkPSJwYXRoNDE2MzYiIGlua3NjYXBlOmNvbm5lY3Rvci1jdXJ2YXR1cmU9IjAiIHN0eWxlPSJmaWxsOiNENDQxMTc7IiBkPSJNMTIuMDUsMTM2Ljg3YzAsMy4zMy0yLjcsNi4wMy02LjAyLDYuMDMgICAgICAgYy0zLjMzLDAtNi4wMy0yLjctNi4wMy02LjAzYzAtMy4zMywyLjctNi4wMyw2LjAzLTYuMDNDOS4zNSwxMzAuODQsMTIuMDUsMTMzLjU0LDEyLjA1LDEzNi44N3oiLz4mI3hhOwkJCQk8L2c+JiN4YTsJCQkJPGcgaWQ9InNoYXBlNTc3LTExMCIgdHJhbnNmb3JtPSJtYXRyaXgoLTEsMCwwLDEsMjguMjc2MSwtMTUuNTc5NykiPiYjeGE7CQkJCQk8dGl0bGUgaWQ9InRpdGxlNDE2MzkiPnBhdGgzNjI5LTctMC0zMjwvdGl0bGU+JiN4YTsJCQkJCTxwYXRoIGlkPSJwYXRoNDE2NDEiIGlua3NjYXBlOmNvbm5lY3Rvci1jdXJ2YXR1cmU9IjAiIHN0eWxlPSJmaWxsOiNENDQxMTc7IiBkPSJNMTMuODksMTI5LjkyICAgICAgIEM2LjU1LDEzMC4wNiwwLjYyLDEzNS43NCwwLDE0Mi45bDIuNzItMC4wNmMwLjYzLTUuNjYsNS4zOC0xMC4xMSwxMS4yMy0xMC4yMmM1Ljg0LTAuMTEsMTAuNzYsNC4xNiwxMS42MSw5Ljc5bDIuNzItMC4wNSAgICAgICBDMjcuMzgsMTM1LjIzLDIxLjI0LDEyOS43OCwxMy44OSwxMjkuOTJMMTMuODksMTI5LjkyeiIvPiYjeGE7CQkJCTwvZz4mI3hhOwkJCQk8ZyBpZD0ic2hhcGU1NzgtMTEyIiB0cmFuc2Zvcm09Im1hdHJpeCgtMSwwLDAsMSwyMC4yOTYxLDApIj4mI3hhOwkJCQkJPHRpdGxlIGlkPSJ0aXRsZTQxNjQ0Ij5wYXRoMzYzMS00LTYtODc8L3RpdGxlPiYjeGE7CQkJCQk8cGF0aCBpZD0icGF0aDQxNjQ2IiBpbmtzY2FwZTpjb25uZWN0b3ItY3VydmF0dXJlPSIwIiBzdHlsZT0iZmlsbDojRDQ0MTE3OyIgZD0iTTUuOTUsMTE0LjE3QzIuNTgsMTE0LjMsMCwxMzAuMjgsMC4wNiwxMzYuNTkgICAgICAgczAuNzUsMy40MiwxLjQ1LDEuMTFjMC43MS0yLjMxLDEuOTktOC45MSw0LjU5LTkuMDFjMi42LTAuMTEsNC40Niw2LjI4LDUuMiw4LjUzYzAuNzUsMi4yNiwxLjAyLDUuMiwwLjk2LTEuMTEgICAgICAgQzEyLjIsMTI5LjgsOS4zMiwxMTQuMDQsNS45NSwxMTQuMTd6Ii8+JiN4YTsJCQkJPC9nPiYjeGE7CQkJPC9nPiYjeGE7CQkJPGcgaWQ9Imdyb3VwNTc5LTExNCIgdHJhbnNmb3JtPSJyb3RhdGUoLTEuNDk5OTksNDcuNjkxMDk3LC0zNjI1LjIzODkpIj4mI3hhOwkJCQk8dGl0bGUgaWQ9InRpdGxlNDE2NTAiPmczMjIzLTctMC0zLTQ8L3RpdGxlPiYjeGE7CQkJCTxnIGlkPSJzaGFwZTU4MC0xMTUiIHRyYW5zZm9ybT0ibWF0cml4KC0wLjk5OTc2MzM2LC0wLjAyMTc1MzgxLC0wLjAyMTc1MzgxLDAuOTk5NzYzMzYsMTguOTE3OCwtMjkuMzE5OCkiPiYjeGE7CQkJCQk8dGl0bGUgaWQ9InRpdGxlNDE2NTIiPnBhdGgzNjI3LTYtMS04LTg8L3RpdGxlPiYjeGE7CQkJCQk8cGF0aCBpZD0icGF0aDQxNjU0IiBpbmtzY2FwZTpjb25uZWN0b3ItY3VydmF0dXJlPSIwIiBzdHlsZT0iZmlsbDojNkJCNDI3OyIgZD0iTTEwLjU4LDEzNi44OGMwLDMuMzItMi4zNyw2LjAyLTUuMjksNi4wMiAgICAgICBTMCwxNDAuMiwwLDEzNi44OGMwLTMuMzIsMi4zNy02LjAxLDUuMjktNi4wMVMxMC41OCwxMzMuNTYsMTAuNTgsMTM2Ljg4eiIvPiYjeGE7CQkJCTwvZz4mI3hhOwkJCQk8ZyBpZD0ic2hhcGU1ODEtMTE3IiB0cmFuc2Zvcm09Im1hdHJpeCgtMSwwLDAsMSwyNC43NTA1LC0xNS41OTY0KSI+JiN4YTsJCQkJCTx0aXRsZSBpZD0idGl0bGU0MTY1NyI+cGF0aDM2MjktNy0wLTUtNzwvdGl0bGU+JiN4YTsJCQkJCTxwYXRoIGlkPSJwYXRoNDE2NTkiIGlua3NjYXBlOmNvbm5lY3Rvci1jdXJ2YXR1cmU9IjAiIHN0eWxlPSJmaWxsOiM2QkI0Mjc7IiBkPSJNMTIuMTYsMTI5LjkxICAgICAgIEM1Ljc0LDEzMC4wNSwwLjU0LDEzNS43MywwLDE0Mi45bDIuMzgtMC4wNmMwLjU1LTUuNjYsNC43MS0xMC4xMiw5LjgzLTEwLjIzczkuNDIsNC4xNiwxMC4xNiw5LjhsMi4zOC0wLjA1ICAgICAgIEMyMy45NywxMzUuMjIsMTguNTksMTI5Ljc3LDEyLjE2LDEyOS45MXoiLz4mI3hhOwkJCQk8L2c+JiN4YTsJCQkJPGcgaWQ9InNoYXBlNTgyLTExOSIgdHJhbnNmb3JtPSJtYXRyaXgoLTEsMCwwLDEsMTguNzY0MiwwKSI+JiN4YTsJCQkJCTx0aXRsZSBpZD0idGl0bGU0MTY2MiI+cGF0aDM2MzEtNC02LTEtMzwvdGl0bGU+JiN4YTsJCQkJCTxwYXRoIGlkPSJwYXRoNDE2NjQiIGlua3NjYXBlOmNvbm5lY3Rvci1jdXJ2YXR1cmU9IjAiIHN0eWxlPSJmaWxsOiM2QkI0Mjc7IiBkPSJNNS4yMSwxMTQuMTQgICAgICAgYy0yLjk1LDAuMTMtNS4yMSwxNi4xMi01LjE2LDIyLjQ0YzAuMDUsNi4zMiwwLjY2LDMuNDMsMS4yOCwxLjEyYzAuNjEtMi4zMiwyLjI1LTMuODYsNC41Mi0zLjk3YzIuMjgtMC4xLDMuMzksMS4yMyw0LjA0LDMuNDkgICAgICAgYzAuNjYsMi4yNiwwLjg5LDUuMiwwLjg0LTEuMTFDMTAuNjgsMTI5Ljc5LDguMTYsMTE0LjAxLDUuMjEsMTE0LjE0eiIvPiYjeGE7CQkJCTwvZz4mI3hhOwkJCTwvZz4mI3hhOwkJCTxnIGlkPSJncm91cDU4My0xMjEiIHRyYW5zZm9ybT0icm90YXRlKC0xLjQ5OTk5LDIyLjc4MjI4OCwtNDU3Ni4wODcpIj4mI3hhOwkJCQk8dGl0bGUgaWQ9InRpdGxlNDE2NjgiPmczMjIzLTctMC0zLTQtNjwvdGl0bGU+JiN4YTsJCQkJPGcgaWQ9InNoYXBlNTg0LTEyMiIgdHJhbnNmb3JtPSJtYXRyaXgoLTAuOTk5NjkyNzgsLTAuMDI0Nzg1ODUsLTAuMDI0Nzg1ODUsMC45OTk2OTI3OCwxNi42OTIzLC0yOS4zMTgyKSI+JiN4YTsJCQkJCTx0aXRsZSBpZD0idGl0bGU0MTY3MCI+cGF0aDM2MjctNi0xLTgtOC0zPC90aXRsZT4mI3hhOwkJCQkJPHBhdGggaWQ9InBhdGg0MTY3MiIgaW5rc2NhcGU6Y29ubmVjdG9yLWN1cnZhdHVyZT0iMCIgc3R5bGU9ImZpbGw6IzU3NzVCMTsiIGQ9Ik05LjI5LDEzNi44OWMwLDMuMzItMi4wOCw2LjAxLTQuNjUsNi4wMSAgICAgICBjLTIuNTYsMC00LjY0LTIuNjktNC42NC02LjAxczIuMDgtNi4wMSw0LjY0LTYuMDFDNy4yMSwxMzAuODgsOS4yOSwxMzMuNTcsOS4yOSwxMzYuODl6Ii8+JiN4YTsJCQkJPC9nPiYjeGE7CQkJCTxnIGlkPSJzaGFwZTU4NS0xMjQiIHRyYW5zZm9ybT0ibWF0cml4KC0xLDAsMCwxLDIxLjY5MzgsLTE1LjU5NjQpIj4mI3hhOwkJCQkJPHRpdGxlIGlkPSJ0aXRsZTQxNjc1Ij5wYXRoMzYyOS03LTAtNS03LTA8L3RpdGxlPiYjeGE7CQkJCQk8cGF0aCBpZD0icGF0aDQxNjc3IiBpbmtzY2FwZTpjb25uZWN0b3ItY3VydmF0dXJlPSIwIiBzdHlsZT0iZmlsbDojNTc3NUIxOyIgZD0iTTEwLjY2LDEyOS45MSAgICAgICBDNS4wMywxMzAuMDUsMC40NywxMzUuNzMsMCwxNDIuOWwyLjA5LTAuMDZjMC40OC01LjY2LDQuMTItMTAuMTIsOC42MS0xMC4yM2M0LjQ5LTAuMTEsOC4yNiw0LjE2LDguOTEsOS44bDIuMDgtMC4wNSAgICAgICBDMjEuMDEsMTM1LjIyLDE2LjI5LDEyOS43NywxMC42NiwxMjkuOTF6Ii8+JiN4YTsJCQkJPC9nPiYjeGE7CQkJCTxnIGlkPSJzaGFwZTU4Ni0xMjYiIHRyYW5zZm9ybT0ibWF0cml4KC0xLDAsMCwxLDE2LjgzOTUsMCkiPiYjeGE7CQkJCQk8dGl0bGUgaWQ9InRpdGxlNDE2ODAiPnBhdGgzNjMxLTQtNi0xLTMtMjwvdGl0bGU+JiN4YTsJCQkJCTxwYXRoIGlkPSJwYXRoNDE2ODIiIGlua3NjYXBlOmNvbm5lY3Rvci1jdXJ2YXR1cmU9IjAiIHN0eWxlPSJmaWxsOiM1Nzc1QjE7IiBkPSJNNC41NiwxMTQuMTQgICAgICAgYy0yLjU4LDAuMTMtNC41NiwxNi4xMi00LjUxLDIyLjQ0YzAuMDQsNi4zMiwwLjU3LDMuNDMsMS4xMSwxLjEyYzAuNTQtMi4zMiwxLjUzLTguOTMsMy41Mi05LjAzYzEuOTktMC4xLDMuNDIsNi4yOSwzLjk5LDguNTUgICAgICAgYzAuNTcsMi4yNiwwLjc4LDUuMiwwLjczLTEuMTFDOS4zNiwxMjkuNzksNy4xNSwxMTQuMDEsNC41NiwxMTQuMTR6Ii8+JiN4YTsJCQkJPC9nPiYjeGE7CQkJPC9nPiYjeGE7CQkJPGcgaWQ9Imdyb3VwNTg3LTEyOCIgdHJhbnNmb3JtPSJ0cmFuc2xhdGUoMCwtMi40NDcxOCkiPiYjeGE7CQkJCTx0aXRsZSBpZD0idGl0bGU0MTY4NiI+ZzM2ODQ8L3RpdGxlPiYjeGE7CQkJCTxnIGlkPSJzaGFwZTU4OC0xMjkiIHRyYW5zZm9ybT0ibWF0cml4KC0wLjk5ODc0NTYxLC0wLjA1MDA3MjEsLTAuMDUwMDcyMSwwLjk5ODc0NTYxLDI1LjQwNTEsLTI3LjgwNjUpIj4mI3hhOwkJCQkJPHRpdGxlIGlkPSJ0aXRsZTQxNjg4Ij5wYXRoMzYyNy02LTEtOC0wPC90aXRsZT4mI3hhOwkJCQkJPHBhdGggaWQ9InBhdGg0MTY5MCIgaW5rc2NhcGU6Y29ubmVjdG9yLWN1cnZhdHVyZT0iMCIgc3R5bGU9ImZpbGw6I0YyQTQzODsiIGQ9Ik05LjU1LDEzNy4wN2MwLDMuMjItMi4xNCw1LjgzLTQuNzcsNS44MyAgICAgICBjLTIuNjQsMC00Ljc4LTIuNjEtNC43OC01LjgzYzAtMy4yMSwyLjE0LTUuODIsNC43OC01LjgyQzcuNDEsMTMxLjI1LDkuNTUsMTMzLjg2LDkuNTUsMTM3LjA3eiIvPiYjeGE7CQkJCTwvZz4mI3hhOwkJCQk8ZyBpZD0ic2hhcGU1ODktMTMxIiB0cmFuc2Zvcm09InRyYW5zbGF0ZSgwLC0xNC40MzQxKSI+JiN4YTsJCQkJCTx0aXRsZSBpZD0idGl0bGU0MTY5MyI+cGF0aDM2MjktNy0wLTUtNTwvdGl0bGU+JiN4YTsJCQkJCTxwYXRoIGlkPSJwYXRoNDE2OTUiIGlua3NjYXBlOmNvbm5lY3Rvci1jdXJ2YXR1cmU9IjAiIHN0eWxlPSJmaWxsOiNGMkE0Mzg7IiBkPSJNMTMuMDMsMTMwLjM4YzUsMS4yNiw3LjYyLDYuNzIsNi4yMiwxMi41MiAgICAgICBsLTEuODYtMC40N2MxLjAyLTQuNjEtMS4xLTguOS01LjA4LTkuOTFjLTMuOTgtMS4wMS04LjQ0LDEuNjEtMTAuNDYsNS45N0wwLDEzOC4wMkMyLjQzLDEzMi40OCw4LjA0LDEyOS4xMSwxMy4wMywxMzAuMzh6Ii8+JiN4YTsJCQkJPC9nPiYjeGE7CQkJCTxnIGlkPSJzaGFwZTU5MC0xMzMiIHRyYW5zZm9ybT0idHJhbnNsYXRlKDEuMzQ2OTgpIj4mI3hhOwkJCQkJPHRpdGxlIGlkPSJ0aXRsZTQxNjk4Ij5wYXRoMzYzMS00LTYtMS01PC90aXRsZT4mI3hhOwkJCQkJPHBhdGggaWQ9InBhdGg0MTcwMCIgaW5rc2NhcGU6Y29ubmVjdG9yLWN1cnZhdHVyZT0iMCIgc3R5bGU9ImZpbGw6I0YyQTQzODsiIGQ9Ik0xMS4xNCwxMTUuMjljMi42NiwwLjIsMS4yNywxNS41My0wLjEzLDIxLjU3ICAgICAgIGMtMS40MSw2LjA0LTEuMzQsMy4yNi0xLjQsMS4wNGMtMC4wNi0yLjIzLDAuMzQtOC41OC0xLjcxLTguNzNjLTIuMDQtMC4xNS00LjksNS45Mi01Ljk4LDguMDZTMCwxNDIuMTgsMS40LDEzNi4xNSAgICAgICBDMi44MSwxMzAuMTEsOC40OSwxMTUuMDksMTEuMTQsMTE1LjI5eiIvPiYjeGE7CQkJCTwvZz4mI3hhOwkJCTwvZz4mI3hhOwkJCTxnIGlkPSJncm91cDU5MS0xMzUiIHRyYW5zZm9ybT0idHJhbnNsYXRlKDE0NC41NjgsLTIuNTg3NzEpIj4mI3hhOwkJCQk8dGl0bGUgaWQ9InRpdGxlNDE3MDQiPmczNjg0LTA8L3RpdGxlPiYjeGE7CQkJCTxnIGlkPSJzaGFwZTU5Mi0xMzYiIHRyYW5zZm9ybT0icm90YXRlKC0yLjg3MDEyLC01NTcuMzU5NCw4MS4wMzc5ODEpIj4mI3hhOwkJCQkJPHRpdGxlIGlkPSJ0aXRsZTQxNzA2Ij5wYXRoMzYyNy02LTEtOC0wLTY8L3RpdGxlPiYjeGE7CQkJCQk8cGF0aCBpZD0icGF0aDQxNzA4IiBpbmtzY2FwZTpjb25uZWN0b3ItY3VydmF0dXJlPSIwIiBzdHlsZT0iZmlsbDojRDQ0MTE3OyIgZD0iTTkuNTUsMTM3LjA3YzAsMy4yMi0yLjE0LDUuODMtNC43Nyw1LjgzICAgICAgIGMtMi42NCwwLTQuNzgtMi42MS00Ljc4LTUuODNjMC0zLjIxLDIuMTQtNS44Miw0Ljc4LTUuODJDNy40MSwxMzEuMjUsOS41NSwxMzMuODYsOS41NSwxMzcuMDd6Ii8+JiN4YTsJCQkJPC9nPiYjeGE7CQkJCTxnIGlkPSJzaGFwZTU5My0xMzgiIHRyYW5zZm9ybT0ibWF0cml4KC0xLDAsMCwxLDIwLjY0ODMsLTE0LjQzNDEpIj4mI3hhOwkJCQkJPHRpdGxlIGlkPSJ0aXRsZTQxNzExIj5wYXRoMzYyOS03LTAtNS01LTQ8L3RpdGxlPiYjeGE7CQkJCQk8cGF0aCBpZD0icGF0aDQxNzEzIiBpbmtzY2FwZTpjb25uZWN0b3ItY3VydmF0dXJlPSIwIiBzdHlsZT0iZmlsbDojRDQ0MTE3OyIgZD0iTTEzLjAzLDEzMC4zOGM1LDEuMjYsNy42Miw2LjcyLDYuMjIsMTIuNTIgICAgICAgbC0xLjg2LTAuNDdjMS4wMi00LjYxLTEuMS04LjktNS4wOC05LjkxYy0zLjk4LTEuMDEtOC40NCwxLjYxLTEwLjQ2LDUuOTdMMCwxMzguMDJDMi40MywxMzIuNDgsOC4wNCwxMjkuMTEsMTMuMDMsMTMwLjM4eiIvPiYjeGE7CQkJCTwvZz4mI3hhOwkJCQk8ZyBpZD0ic2hhcGU1OTQtMTQwIiB0cmFuc2Zvcm09Im1hdHJpeCgtMSwwLDAsMSwxOS4zMDEzLDApIj4mI3hhOwkJCQkJPHRpdGxlIGlkPSJ0aXRsZTQxNzE2Ij5wYXRoMzYzMS00LTYtMS01LTY8L3RpdGxlPiYjeGE7CQkJCQk8cGF0aCBpZD0icGF0aDQxNzE4IiBpbmtzY2FwZTpjb25uZWN0b3ItY3VydmF0dXJlPSIwIiBzdHlsZT0iZmlsbDojRDQ0MTE3OyIgZD0iTTExLjE0LDExNS4yOWMyLjY2LDAuMiwxLjI3LDE1LjUzLTAuMTMsMjEuNTcgICAgICAgYy0xLjQxLDYuMDQtMS4zNCwzLjI2LTEuNCwxLjA0Yy0wLjA2LTIuMjMsMC4zNC04LjU4LTEuNzEtOC43M2MtMi4wNC0wLjE1LTQuOSw1LjkyLTUuOTgsOC4wNlMwLDE0Mi4xOCwxLjQsMTM2LjE1ICAgICAgIEMyLjgxLDEzMC4xMSw4LjQ5LDExNS4wOSwxMS4xNCwxMTUuMjl6Ii8+JiN4YTsJCQkJPC9nPiYjeGE7CQkJPC9nPiYjeGE7CQk8L2c+JiN4YTsJPC9nPiYjeGE7PC9nPiYjeGE7PC9zdmc+;" vertex="1" parent="1">
          <mxGeometry x="542.4599999999999" y="248" width="54.47" height="41" as="geometry" />
        </mxCell>
        <mxCell id="P7VSxlDMBpMuydGatJfI-115" value="" style="outlineConnect=0;dashed=0;verticalLabelPosition=bottom;verticalAlign=top;align=center;html=1;shape=mxgraph.aws3.house;fillColor=#5294CF;gradientColor=none;" vertex="1" parent="1">
          <mxGeometry x="551.05" y="329" width="54" height="50" as="geometry" />
        </mxCell>
        <mxCell id="P7VSxlDMBpMuydGatJfI-131" style="edgeStyle=orthogonalEdgeStyle;rounded=0;orthogonalLoop=1;jettySize=auto;html=1;entryX=1;entryY=0.75;entryDx=0;entryDy=0;" edge="1" parent="1" source="P7VSxlDMBpMuydGatJfI-116" target="P7VSxlDMBpMuydGatJfI-125">
          <mxGeometry relative="1" as="geometry" />
        </mxCell>
        <mxCell id="P7VSxlDMBpMuydGatJfI-116" value="" style="shape=image;html=1;verticalAlign=top;verticalLabelPosition=bottom;labelBackgroundColor=#ffffff;imageAspect=0;aspect=fixed;image=https://cdn0.iconfinder.com/data/icons/business-660/512/258_Income_profit_revenue_Money-128.png" vertex="1" parent="1">
          <mxGeometry x="553.5500000000001" y="410" width="50" height="50" as="geometry" />
        </mxCell>
        <mxCell id="P7VSxlDMBpMuydGatJfI-117" value="EUCATION" style="text;strokeColor=none;align=center;fillColor=none;html=1;verticalAlign=middle;whiteSpace=wrap;rounded=0;" vertex="1" parent="1">
          <mxGeometry x="548.5500000000001" y="220" width="60" height="30" as="geometry" />
        </mxCell>
        <mxCell id="P7VSxlDMBpMuydGatJfI-118" value="GDP" style="text;strokeColor=none;align=center;fillColor=none;html=1;verticalAlign=middle;whiteSpace=wrap;rounded=0;" vertex="1" parent="1">
          <mxGeometry x="542.4599999999999" y="290" width="60" height="30" as="geometry" />
        </mxCell>
        <mxCell id="P7VSxlDMBpMuydGatJfI-120" value="POVERTY" style="text;strokeColor=none;align=center;fillColor=none;html=1;verticalAlign=middle;whiteSpace=wrap;rounded=0;" vertex="1" parent="1">
          <mxGeometry x="545.05" y="374" width="60" height="30" as="geometry" />
        </mxCell>
        <mxCell id="P7VSxlDMBpMuydGatJfI-121" value="INCOME" style="text;strokeColor=none;align=center;fillColor=none;html=1;verticalAlign=middle;whiteSpace=wrap;rounded=0;" vertex="1" parent="1">
          <mxGeometry x="542.46" y="452" width="60" height="30" as="geometry" />
        </mxCell>
        <mxCell id="P7VSxlDMBpMuydGatJfI-122" value="UNEMPLOYMENT" style="text;strokeColor=none;align=center;fillColor=none;html=1;verticalAlign=middle;whiteSpace=wrap;rounded=0;" vertex="1" parent="1">
          <mxGeometry x="564" y="146" width="60" height="30" as="geometry" />
        </mxCell>
        <mxCell id="P7VSxlDMBpMuydGatJfI-123" value="POPULATION" style="text;strokeColor=none;align=center;fillColor=none;html=1;verticalAlign=middle;whiteSpace=wrap;rounded=0;" vertex="1" parent="1">
          <mxGeometry x="555.44" y="70" width="60" height="30" as="geometry" />
        </mxCell>
        <mxCell id="P7VSxlDMBpMuydGatJfI-124" value="SOCIO ECONOMIC FACTORS" style="text;strokeColor=none;align=center;fillColor=none;html=1;verticalAlign=middle;whiteSpace=wrap;rounded=0;" vertex="1" parent="1">
          <mxGeometry x="551.55" y="-20" width="118.45" height="30" as="geometry" />
        </mxCell>
        <mxCell id="P7VSxlDMBpMuydGatJfI-133" style="edgeStyle=orthogonalEdgeStyle;rounded=0;orthogonalLoop=1;jettySize=auto;html=1;" edge="1" parent="1" source="P7VSxlDMBpMuydGatJfI-125" target="P7VSxlDMBpMuydGatJfI-106">
          <mxGeometry relative="1" as="geometry" />
        </mxCell>
        <mxCell id="P7VSxlDMBpMuydGatJfI-134" style="edgeStyle=orthogonalEdgeStyle;rounded=0;orthogonalLoop=1;jettySize=auto;html=1;" edge="1" parent="1" source="P7VSxlDMBpMuydGatJfI-125" target="P7VSxlDMBpMuydGatJfI-104">
          <mxGeometry relative="1" as="geometry" />
        </mxCell>
        <mxCell id="P7VSxlDMBpMuydGatJfI-136" style="edgeStyle=orthogonalEdgeStyle;rounded=0;orthogonalLoop=1;jettySize=auto;html=1;" edge="1" parent="1" source="P7VSxlDMBpMuydGatJfI-125" target="P7VSxlDMBpMuydGatJfI-107">
          <mxGeometry relative="1" as="geometry" />
        </mxCell>
        <mxCell id="P7VSxlDMBpMuydGatJfI-125" value="" style="shape=image;html=1;verticalAlign=top;verticalLabelPosition=bottom;labelBackgroundColor=#ffffff;imageAspect=0;aspect=fixed;image=https://cdn4.iconfinder.com/data/icons/crime-and-security-24/64/6-128.png" vertex="1" parent="1">
          <mxGeometry x="720" y="156.5" width="89" height="89" as="geometry" />
        </mxCell>
        <mxCell id="P7VSxlDMBpMuydGatJfI-128" style="edgeStyle=orthogonalEdgeStyle;rounded=0;orthogonalLoop=1;jettySize=auto;html=1;entryX=0.112;entryY=0.938;entryDx=0;entryDy=0;entryPerimeter=0;" edge="1" parent="1" source="P7VSxlDMBpMuydGatJfI-112" target="P7VSxlDMBpMuydGatJfI-125">
          <mxGeometry relative="1" as="geometry" />
        </mxCell>
        <mxCell id="P7VSxlDMBpMuydGatJfI-130" style="edgeStyle=orthogonalEdgeStyle;rounded=0;orthogonalLoop=1;jettySize=auto;html=1;entryX=0.843;entryY=0.972;entryDx=0;entryDy=0;entryPerimeter=0;" edge="1" parent="1" source="P7VSxlDMBpMuydGatJfI-115" target="P7VSxlDMBpMuydGatJfI-125">
          <mxGeometry relative="1" as="geometry" />
        </mxCell>
        <mxCell id="P7VSxlDMBpMuydGatJfI-132" style="edgeStyle=orthogonalEdgeStyle;rounded=0;orthogonalLoop=1;jettySize=auto;html=1;entryX=0.013;entryY=0.492;entryDx=0;entryDy=0;entryPerimeter=0;" edge="1" parent="1" source="P7VSxlDMBpMuydGatJfI-125" target="P7VSxlDMBpMuydGatJfI-102">
          <mxGeometry relative="1" as="geometry" />
        </mxCell>
        <mxCell id="P7VSxlDMBpMuydGatJfI-137" value="YEARS OF CRIME RATE" style="text;strokeColor=none;align=center;fillColor=none;html=1;verticalAlign=middle;whiteSpace=wrap;rounded=0;" vertex="1" parent="1">
          <mxGeometry x="886.0999999999999" y="191.75" width="118.45" height="30" as="geometry" />
        </mxCell>
        <mxCell id="P7VSxlDMBpMuydGatJfI-138" value="WEIGHING THROUGH RSQUARE AND MSE" style="text;strokeColor=none;align=center;fillColor=none;html=1;verticalAlign=middle;whiteSpace=wrap;rounded=0;" vertex="1" parent="1">
          <mxGeometry x="899.3299999999999" y="320" width="118.45" height="30" as="geometry" />
        </mxCell>
        <mxCell id="P7VSxlDMBpMuydGatJfI-139" value="HOTSPOTS &amp;amp; DISTRIBUTION OF POLICE STATIONS" style="text;strokeColor=none;align=center;fillColor=none;html=1;verticalAlign=middle;whiteSpace=wrap;rounded=0;" vertex="1" parent="1">
          <mxGeometry x="899.3299999999999" y="452" width="118.45" height="30" as="geometry" />
        </mxCell>
        <mxCell id="P7VSxlDMBpMuydGatJfI-140" value="FACTOR THAT MOST&amp;nbsp;" style="text;strokeColor=none;align=center;fillColor=none;html=1;verticalAlign=middle;whiteSpace=wrap;rounded=0;" vertex="1" parent="1">
          <mxGeometry x="890" y="66" width="118.45" height="30" as="geometry" />
        </mxCell>
        <mxCell id="P7VSxlDMBpMuydGatJfI-141" value="CRIME&amp;nbsp;" style="text;strokeColor=none;align=center;fillColor=none;html=1;verticalAlign=middle;whiteSpace=wrap;rounded=0;" vertex="1" parent="1">
          <mxGeometry x="680" y="140" width="118.45" height="30" as="geometry" />
        </mxCell>
        <mxCell id="P7VSxlDMBpMuydGatJfI-143" value="&lt;b&gt;NEW YORK CITY CRIME ANALYSIS CATEGORISED BASED ON CRIME AND BOROUGH USING MACHINE LEARNING FRAMEWORK&lt;/b&gt;" style="text;strokeColor=none;align=center;fillColor=none;html=1;verticalAlign=middle;whiteSpace=wrap;rounded=0;" vertex="1" parent="1">
          <mxGeometry x="310" y="-70" width="470" height="30" as="geometry" />
        </mxCell>
      </root>
    </mxGraphModel>
  </diagram>
</mxfile>
